<?xml version="1.0" standalone="no"?>
<!DOCTYPE svg PUBLIC "-//W3C//DTD SVG 20010904//EN"
 "http://www.w3.org/TR/2001/REC-SVG-20010904/DTD/svg10.dtd">
<svg version="1.0" xmlns="http://www.w3.org/2000/svg"
 width="2990.000000pt" height="2269.000000pt" viewBox="0 0 2990.000000 2269.000000"
 preserveAspectRatio="xMidYMid meet">

<g transform="translate(0.000000,2269.000000) scale(0.100000,-0.100000)"
fill="#000000" stroke="none">
<path d="M14855 21660 c-622 -7 -830 -16 -875 -40 -11 -6 -53 -14 -93 -17 -40
-3 -94 -11 -121 -19 -27 -8 -65 -14 -85 -14 -35 0 -80 -7 -226 -36 -44 -8
-120 -20 -170 -25 -49 -6 -99 -14 -110 -19 -11 -5 -54 -11 -95 -15 -41 -3 -94
-13 -118 -21 -23 -8 -61 -14 -83 -14 -55 0 -279 -56 -313 -78 -24 -15 -206
-75 -265 -87 -19 -4 -57 -18 -85 -31 -28 -13 -59 -24 -69 -24 -11 0 -33 -6
-50 -14 -18 -8 -66 -24 -107 -36 -41 -13 -96 -31 -122 -41 -26 -11 -54 -19
-63 -19 -9 0 -32 -8 -53 -19 -20 -10 -55 -21 -77 -25 -22 -4 -49 -13 -60 -20
-11 -7 -38 -16 -60 -20 -22 -4 -44 -11 -50 -15 -5 -4 -41 -20 -80 -35 -38 -15
-116 -51 -172 -79 -112 -58 -120 -62 -247 -131 -49 -27 -109 -54 -135 -61 -71
-20 -113 -35 -156 -57 -164 -82 -242 -123 -255 -133 -8 -7 -40 -25 -70 -40
-83 -42 -170 -95 -215 -130 -22 -17 -54 -40 -71 -51 -18 -10 -72 -46 -120 -78
-49 -33 -114 -72 -144 -88 -70 -37 -124 -70 -147 -89 -10 -9 -40 -28 -68 -44
-95 -55 -327 -243 -641 -521 -34 -30 -77 -67 -97 -82 -19 -15 -73 -61 -119
-102 -45 -42 -109 -95 -141 -120 -32 -24 -64 -52 -71 -62 -7 -10 -33 -32 -57
-50 -24 -17 -105 -92 -180 -167 -74 -75 -182 -181 -238 -236 -57 -55 -115
-118 -129 -140 -36 -58 -77 -106 -157 -188 -118 -120 -219 -248 -371 -468 -22
-32 -51 -71 -65 -86 -24 -29 -58 -73 -130 -173 -50 -69 -69 -94 -119 -151 -22
-25 -40 -50 -40 -54 0 -4 -11 -21 -25 -39 -121 -149 -275 -368 -315 -446 -12
-25 -28 -51 -34 -59 -21 -26 -85 -145 -162 -301 -43 -85 -83 -162 -90 -170
-31 -37 -144 -247 -144 -268 0 -5 -9 -20 -19 -33 -10 -14 -31 -54 -46 -89 -40
-97 -67 -152 -88 -182 -11 -14 -23 -43 -27 -65 -5 -21 -13 -51 -19 -68 -13
-39 -40 -122 -51 -160 -14 -49 -104 -249 -201 -448 -11 -21 -19 -49 -19 -63 0
-13 -7 -35 -15 -47 -8 -13 -30 -76 -50 -141 -19 -65 -40 -125 -47 -133 -6 -8
-15 -36 -19 -61 -12 -76 -36 -174 -62 -253 -13 -41 -32 -99 -40 -129 -9 -30
-25 -84 -36 -120 -11 -36 -29 -101 -41 -145 -12 -44 -26 -93 -31 -110 -39
-132 -52 -173 -62 -190 -6 -11 -14 -63 -18 -115 -8 -103 -21 -179 -38 -223 -6
-16 -11 -52 -11 -80 0 -29 -5 -68 -11 -87 -7 -19 -13 -64 -15 -100 -4 -106
-21 -243 -32 -272 -6 -15 -13 -79 -16 -143 -3 -63 -8 -120 -12 -127 -7 -11
-16 -69 -43 -278 -6 -47 -16 -110 -21 -142 -14 -77 -13 -1499 1 -1598 6 -41
18 -118 26 -170 9 -52 19 -140 24 -195 4 -55 12 -122 18 -150 5 -27 10 -83 10
-123 1 -40 7 -83 13 -95 7 -12 16 -56 19 -97 7 -83 25 -201 40 -270 9 -41 18
-113 49 -365 6 -44 17 -94 25 -111 8 -18 15 -46 15 -63 0 -17 9 -47 20 -68 10
-21 24 -60 31 -88 6 -27 18 -65 25 -83 8 -18 14 -41 14 -51 0 -10 9 -47 20
-81 11 -34 20 -74 20 -89 0 -14 11 -42 24 -62 14 -20 29 -58 35 -85 20 -94 69
-280 90 -339 6 -16 24 -77 41 -135 17 -58 36 -118 42 -135 6 -16 16 -49 22
-72 6 -23 15 -45 19 -49 4 -4 7 -15 7 -23 0 -9 11 -33 25 -53 13 -20 36 -67
50 -104 14 -38 36 -87 49 -109 13 -22 36 -71 51 -110 15 -38 31 -74 36 -80 5
-5 9 -19 9 -31 0 -12 9 -41 20 -65 11 -24 20 -53 20 -65 0 -12 11 -41 23 -65
13 -24 27 -56 31 -71 3 -16 24 -56 46 -90 22 -34 45 -80 51 -102 12 -45 110
-229 172 -319 21 -32 51 -84 65 -115 14 -31 41 -83 59 -114 18 -31 33 -65 33
-75 0 -10 23 -54 51 -98 27 -44 58 -93 67 -109 32 -53 183 -279 218 -325 19
-25 45 -60 57 -78 12 -17 56 -73 98 -125 41 -51 88 -112 105 -135 99 -141 121
-171 163 -219 25 -29 74 -90 108 -136 63 -84 77 -103 193 -250 36 -46 78 -102
94 -126 16 -23 32 -42 37 -42 9 0 139 -148 186 -212 43 -58 110 -126 217 -223
50 -44 117 -107 150 -140 69 -69 332 -299 369 -324 14 -9 81 -63 148 -120 68
-57 171 -142 228 -190 57 -47 127 -106 156 -131 28 -25 93 -81 144 -125 51
-44 127 -104 169 -133 154 -105 277 -187 287 -191 5 -2 27 -15 49 -30 21 -14
75 -46 121 -71 45 -25 116 -67 156 -94 192 -127 206 -135 364 -213 50 -24 97
-48 105 -53 77 -46 121 -70 128 -70 26 0 257 -97 367 -155 72 -37 144 -74 160
-83 17 -8 37 -20 45 -27 16 -12 86 -38 155 -57 22 -6 45 -15 51 -19 12 -9 142
-56 189 -68 17 -4 44 -15 62 -24 18 -10 41 -17 52 -17 11 0 35 -6 53 -14 18
-8 58 -21 88 -30 153 -43 267 -79 285 -91 11 -6 49 -17 85 -23 36 -7 95 -24
130 -38 74 -29 181 -68 255 -91 28 -8 109 -21 180 -28 72 -7 144 -18 160 -24
17 -6 73 -15 125 -21 141 -15 222 -27 253 -39 16 -6 54 -11 86 -11 32 0 76 -6
97 -14 22 -7 78 -16 127 -20 48 -4 99 -11 115 -16 15 -5 68 -14 117 -20 50 -5
119 -15 155 -21 40 -6 235 -9 505 -8 242 1 573 2 735 1 208 0 316 3 365 13 39
7 102 16 142 19 40 3 98 13 130 21 31 8 76 15 99 15 23 0 61 7 84 15 23 8 59
15 79 15 20 0 95 11 166 25 204 38 303 55 395 65 47 5 100 15 119 21 18 6 68
15 110 19 95 10 149 25 226 60 33 15 86 35 118 44 31 9 81 23 110 31 28 9 75
22 102 29 28 8 88 28 135 45 139 51 231 81 254 81 11 1 32 7 46 15 14 8 35 14
48 15 12 0 51 14 85 31 63 32 169 72 242 91 22 6 67 24 100 40 130 65 392 202
427 225 21 12 47 23 58 23 34 0 75 19 370 170 64 32 132 70 153 84 21 14 42
26 47 26 5 0 34 20 64 45 31 25 59 45 62 45 3 0 24 14 46 31 22 18 57 38 79
45 22 8 58 26 81 42 98 65 176 114 222 137 27 14 70 43 95 63 47 38 107 81
166 117 39 24 98 73 168 139 29 26 68 60 87 75 19 14 100 82 180 151 249 215
319 274 383 322 34 26 73 60 87 76 14 16 51 50 82 76 32 25 118 106 191 179
73 72 185 182 250 243 64 61 117 117 117 125 0 8 34 50 76 94 41 44 99 112
128 150 30 39 64 79 76 90 13 11 42 49 65 85 23 36 56 81 74 100 17 19 46 58
63 85 18 28 50 73 73 100 22 28 54 68 70 90 16 22 37 49 47 60 9 11 59 79 110
151 51 72 113 158 138 191 58 78 188 259 245 343 25 36 61 97 81 135 20 39 42
77 49 85 20 24 99 179 129 253 25 62 71 138 117 192 9 11 29 49 45 85 15 36
35 76 44 90 9 14 29 54 44 90 15 36 47 106 70 155 56 118 69 151 107 270 37
118 63 176 101 229 15 21 28 49 28 62 0 13 14 45 30 71 17 26 30 55 30 66 0
10 6 31 13 45 8 15 21 42 30 60 31 61 65 156 76 211 7 30 16 60 21 66 5 6 16
40 24 75 25 111 65 261 97 365 17 55 40 132 51 170 12 39 29 95 38 125 18 55
39 134 64 241 7 30 18 64 23 75 13 24 49 169 62 249 6 33 17 101 25 150 9 50
18 126 21 170 3 44 10 103 15 130 17 95 30 190 46 339 9 82 20 160 25 173 5
13 9 44 9 68 0 25 6 64 14 87 8 24 17 103 20 176 3 74 11 143 17 153 7 14 9
231 5 702 -5 661 -14 897 -36 1022 -12 65 -13 75 -37 270 -8 72 -19 159 -25
195 -5 36 -12 103 -16 150 -4 47 -12 94 -18 105 -6 11 -14 67 -18 124 -4 58
-11 112 -16 122 -5 9 -14 52 -20 96 -33 255 -64 398 -134 603 -14 41 -32 100
-40 130 -8 30 -22 79 -30 109 -9 29 -16 61 -16 70 0 10 -7 26 -15 37 -8 10
-15 26 -15 35 0 9 -11 50 -24 90 -13 41 -29 99 -36 129 -15 69 -43 159 -71
230 -11 30 -25 73 -29 95 -13 63 -29 118 -44 145 -8 14 -17 42 -21 63 -7 35
-31 89 -70 157 -8 14 -33 66 -56 115 -22 50 -52 113 -65 140 -44 93 -64 144
-64 162 0 10 -6 30 -14 45 -8 15 -17 41 -21 59 -7 30 -28 78 -131 296 -19 39
-34 76 -34 82 0 5 -10 22 -23 38 -12 15 -37 58 -56 96 -18 37 -37 69 -42 72
-14 9 -91 145 -116 204 -12 29 -30 63 -41 75 -11 11 -23 32 -27 45 -10 34 -90
188 -123 237 -15 22 -38 58 -52 80 -75 119 -153 228 -213 300 -37 45 -82 102
-100 127 -17 25 -59 80 -92 122 -33 42 -70 90 -83 108 -13 17 -36 47 -52 67
-15 19 -43 56 -62 81 -65 92 -173 233 -260 344 -38 48 -68 90 -68 95 0 5 -28
39 -62 77 -115 126 -182 204 -200 234 -25 42 -290 297 -319 307 -5 2 -20 18
-32 36 -21 31 -190 188 -247 230 -124 91 -243 191 -341 287 -25 25 -64 59 -85
75 -69 50 -247 196 -305 248 -140 127 -375 303 -455 340 -17 8 -36 22 -44 30
-7 9 -18 16 -25 16 -8 0 -26 10 -42 23 -15 13 -72 45 -125 71 -54 26 -128 69
-165 96 -38 27 -93 66 -123 88 -55 39 -113 72 -270 152 -182 92 -260 129 -290
135 -57 12 -181 64 -228 96 -24 16 -70 41 -102 54 -32 14 -74 35 -92 47 -37
25 -179 82 -303 122 -153 49 -222 74 -273 100 -28 14 -66 26 -84 26 -18 1 -51
8 -73 16 -22 9 -56 20 -75 25 -19 5 -78 25 -130 45 -52 20 -122 42 -155 49
-90 21 -166 43 -179 53 -6 5 -29 13 -51 16 -22 4 -65 18 -95 31 -70 31 -137
44 -275 56 -60 5 -121 13 -135 19 -14 5 -62 14 -108 19 -45 6 -91 15 -102 21
-10 5 -40 10 -67 10 -48 0 -186 19 -318 45 -38 8 -100 16 -137 19 -38 3 -76 9
-85 14 -10 5 -67 13 -128 17 -60 4 -114 11 -120 15 -18 14 -230 16 -880 10z
m-25 -482 c466 13 589 13 625 2 22 -6 114 -14 205 -16 99 -3 209 -12 275 -24
61 -10 160 -24 222 -30 61 -6 160 -21 220 -35 60 -13 160 -31 223 -39 63 -8
128 -19 143 -25 16 -6 46 -11 68 -11 22 0 52 -6 67 -14 52 -27 157 -59 237
-72 129 -21 265 -52 340 -77 396 -135 370 -126 497 -174 49 -18 95 -33 103
-33 9 0 37 -11 63 -25 26 -14 54 -25 62 -25 18 0 119 -34 165 -55 17 -7 44
-17 60 -21 17 -4 41 -13 55 -20 14 -7 54 -25 89 -40 36 -14 91 -43 122 -65 32
-21 60 -39 63 -39 3 0 47 -24 98 -53 51 -30 110 -60 131 -67 22 -7 51 -18 65
-26 15 -8 38 -14 52 -14 27 0 162 -69 195 -100 11 -10 77 -47 146 -83 78 -40
156 -89 203 -128 145 -121 236 -181 406 -266 54 -27 114 -68 165 -114 44 -39
92 -77 107 -85 14 -7 28 -17 30 -22 8 -19 171 -151 219 -177 114 -61 326 -233
393 -318 51 -64 62 -75 111 -110 42 -28 228 -209 324 -312 30 -33 142 -151
249 -262 107 -111 223 -242 259 -290 35 -48 97 -122 136 -163 101 -103 129
-141 247 -325 56 -88 125 -193 153 -232 29 -40 65 -92 82 -115 16 -24 56 -75
87 -115 32 -39 58 -75 58 -80 0 -4 6 -19 13 -33 8 -14 51 -97 97 -185 89 -170
120 -219 186 -294 25 -27 68 -101 106 -181 102 -213 110 -227 151 -288 14 -20
33 -68 41 -105 9 -37 36 -109 61 -160 25 -51 45 -101 45 -111 0 -10 15 -41 34
-69 45 -69 116 -196 116 -208 0 -6 9 -27 20 -49 11 -22 20 -49 20 -61 0 -11 6
-33 14 -47 7 -15 24 -61 36 -102 12 -41 38 -121 56 -177 19 -56 34 -112 34
-124 0 -11 9 -32 20 -46 11 -14 20 -38 20 -54 0 -26 29 -114 49 -150 5 -9 12
-34 16 -55 3 -22 20 -79 36 -129 30 -92 67 -218 93 -315 8 -30 24 -89 35 -132
12 -42 21 -98 21 -126 0 -47 38 -189 65 -242 14 -28 32 -127 45 -250 8 -73 25
-184 55 -345 9 -44 24 -147 35 -230 11 -82 22 -161 25 -175 3 -14 8 -101 11
-195 2 -93 7 -183 9 -200 18 -131 25 -248 25 -420 -1 -110 0 -317 0 -460 1
-143 -3 -289 -9 -325 -6 -36 -15 -162 -21 -280 -11 -216 -30 -414 -51 -525 -6
-33 -13 -80 -14 -105 -1 -25 -9 -70 -18 -100 -8 -30 -21 -100 -27 -155 -6 -55
-15 -120 -20 -145 -5 -25 -14 -80 -19 -122 -6 -43 -22 -105 -36 -140 -14 -34
-25 -71 -25 -82 0 -12 -7 -43 -15 -70 -8 -27 -15 -70 -16 -95 0 -56 -65 -302
-143 -544 -21 -65 -110 -349 -151 -482 -21 -66 -50 -160 -65 -210 -47 -149
-70 -228 -70 -237 0 -5 -24 -48 -53 -96 -29 -48 -65 -112 -79 -142 -74 -155
-108 -235 -117 -278 -16 -76 -54 -174 -87 -228 -56 -89 -124 -213 -124 -226 0
-18 -45 -106 -76 -148 -14 -19 -43 -58 -65 -86 -21 -28 -39 -54 -39 -57 0 -3
-12 -23 -26 -44 -42 -63 -114 -198 -147 -281 -30 -72 -119 -201 -232 -337 -51
-61 -175 -248 -175 -263 0 -12 -48 -86 -94 -147 -17 -21 -36 -49 -43 -62 -16
-31 -69 -97 -123 -152 -25 -25 -66 -73 -90 -106 -24 -33 -64 -82 -89 -110 -90
-102 -209 -231 -312 -339 -58 -61 -157 -166 -220 -232 -63 -67 -154 -157 -203
-200 -49 -44 -137 -127 -195 -185 -58 -58 -151 -138 -206 -179 -55 -40 -120
-88 -144 -107 -24 -18 -48 -33 -54 -33 -5 0 -41 -30 -81 -66 -39 -37 -96 -85
-126 -107 -30 -23 -77 -62 -105 -88 -27 -25 -84 -64 -125 -86 -169 -90 -245
-135 -298 -175 -30 -24 -80 -62 -111 -85 -31 -23 -73 -55 -95 -72 -21 -17 -77
-52 -125 -78 -47 -25 -126 -73 -174 -105 -58 -38 -117 -68 -168 -84 -98 -31
-198 -75 -253 -112 -22 -15 -48 -31 -56 -35 -8 -4 -35 -21 -60 -37 -25 -16
-56 -35 -70 -40 -14 -6 -32 -18 -41 -26 -19 -17 -196 -94 -217 -94 -8 0 -40
-11 -71 -24 -31 -14 -114 -45 -186 -71 -71 -25 -186 -67 -255 -92 -69 -24
-145 -51 -170 -58 -25 -7 -61 -19 -80 -28 -72 -31 -155 -61 -189 -68 -20 -4
-74 -21 -121 -37 -47 -16 -106 -33 -130 -37 -81 -13 -244 -54 -315 -80 -66
-24 -202 -52 -375 -76 -41 -6 -97 -17 -125 -24 -27 -7 -99 -21 -160 -30 -60
-9 -153 -26 -205 -38 -69 -15 -151 -22 -295 -27 -110 -4 -227 -13 -260 -19
-40 -9 -220 -14 -544 -16 -449 -4 -490 -3 -578 15 -73 15 -136 20 -266 20
-117 0 -186 4 -221 14 -28 8 -87 19 -131 25 -118 16 -129 18 -186 35 -29 9
-77 16 -106 16 -30 0 -63 5 -73 10 -11 6 -56 15 -102 20 -134 16 -195 29 -297
64 -53 18 -136 39 -186 46 -49 7 -110 18 -135 25 -25 7 -61 16 -80 19 -19 3
-48 13 -63 21 -15 8 -45 17 -65 21 -20 4 -49 13 -64 20 -15 8 -35 14 -45 14
-10 0 -34 8 -53 19 -19 10 -58 23 -85 29 -28 6 -80 24 -115 40 -36 16 -87 34
-115 41 -27 6 -88 27 -135 46 -47 18 -96 36 -110 40 -14 3 -41 12 -60 20 -127
50 -171 65 -187 65 -29 0 -212 84 -273 125 -30 21 -79 49 -109 63 -30 14 -73
37 -95 53 -23 15 -89 43 -148 63 -59 20 -127 47 -150 61 -24 13 -65 35 -93 50
-27 15 -57 33 -66 41 -8 7 -60 37 -115 65 -103 53 -146 82 -229 160 -60 56
-209 150 -362 229 -86 45 -139 81 -231 162 -140 121 -195 167 -226 188 -13 8
-67 45 -122 81 -102 68 -194 147 -299 255 -33 34 -87 84 -121 112 -103 85
-253 230 -384 372 -69 74 -188 199 -265 278 -77 79 -144 151 -149 160 -5 9
-30 42 -54 72 -24 30 -59 73 -76 95 -17 22 -58 69 -91 105 -129 139 -192 224
-258 351 -38 72 -182 268 -271 368 -62 68 -92 118 -127 206 -13 33 -54 112
-90 175 -36 63 -72 126 -80 140 -8 13 -38 52 -68 85 -46 52 -75 101 -134 235
-6 14 -33 61 -59 106 -56 95 -126 248 -134 295 -7 40 -34 119 -46 135 -4 6
-17 36 -27 67 -11 31 -34 77 -50 101 -17 25 -31 49 -31 53 0 5 -18 37 -40 71
-42 64 -111 239 -130 327 -6 28 -16 66 -24 85 -7 19 -25 76 -41 125 -15 50
-36 113 -46 140 -11 28 -19 57 -19 65 0 9 -8 31 -18 50 -11 19 -22 57 -25 83
-4 26 -15 69 -26 95 -28 70 -58 168 -76 252 -9 41 -28 113 -42 159 -14 47 -29
114 -34 151 -4 36 -12 78 -18 92 -5 14 -7 35 -5 45 3 11 -2 37 -10 58 -9 20
-16 52 -16 69 0 17 -7 42 -16 55 -22 30 -51 164 -59 271 -4 47 -13 108 -20
135 -7 28 -16 83 -20 123 -3 41 -13 104 -21 140 -8 37 -19 108 -24 157 -6 50
-15 115 -21 145 -7 30 -13 129 -14 220 -3 182 -9 240 -31 317 -13 44 -15 135
-12 615 3 434 7 570 17 593 9 20 14 90 15 215 2 119 9 217 19 275 9 50 21 137
27 195 6 58 15 123 21 145 6 22 17 92 24 155 7 63 20 153 29 200 10 47 21 112
26 145 5 33 20 92 34 130 28 76 66 241 66 286 0 31 16 106 32 154 5 17 16 62
23 100 8 39 30 119 49 180 20 60 36 115 36 122 0 7 6 27 14 45 8 18 22 60 32
93 9 33 19 65 23 70 3 6 20 57 37 115 18 58 39 123 47 145 9 22 16 52 17 67 0
15 9 42 20 60 11 18 20 48 20 66 0 18 7 46 14 61 8 15 20 50 27 77 15 58 53
143 108 239 23 39 48 86 57 105 16 36 46 103 69 155 15 33 42 112 54 161 11
42 53 129 118 242 29 51 53 95 53 99 0 13 110 232 119 238 6 3 37 40 68 82 54
70 97 146 173 303 79 163 90 180 266 415 50 66 115 163 144 215 29 52 75 120
100 150 26 30 59 74 74 98 15 24 53 69 84 100 77 77 146 159 196 234 42 64 79
106 131 148 17 14 42 41 56 60 15 19 72 81 127 137 55 56 151 159 213 229 62
69 171 177 241 240 70 63 146 137 169 165 80 94 267 242 369 291 33 16 70 46
93 72 21 25 72 72 115 105 42 32 86 69 97 81 32 37 162 130 181 130 10 0 34
10 53 23 200 130 285 190 364 257 52 43 129 97 173 119 90 47 131 71 224 128
36 23 97 53 135 68 179 70 329 145 448 224 96 63 146 86 252 116 28 8 59 19
70 24 41 20 152 61 166 61 8 0 38 11 67 25 30 14 63 25 74 25 10 0 36 9 56 19
20 10 53 24 72 31 71 25 217 79 295 110 44 18 100 36 124 41 24 5 49 13 55 18
6 5 47 16 91 25 44 9 102 23 129 31 27 8 69 15 93 15 24 0 65 8 91 19 185 73
212 81 307 92 55 6 118 15 140 21 22 5 74 16 115 23 41 8 100 19 130 25 209
41 282 54 335 60 33 4 71 11 85 14 14 4 93 9 175 11 83 2 173 9 200 15 87 19
206 27 350 22 77 -2 147 -4 155 -4z"/>
<path d="M15095 20658 c-30 -17 -32 -22 -33 -124 0 -52 -6 -111 -13 -131 -6
-19 -9 -56 -6 -80 3 -25 1 -59 -4 -77 -7 -28 -14 -108 -24 -301 -7 -145 -16
-278 -24 -375 -5 -58 -9 -116 -9 -130 0 -14 -3 -63 -6 -110 -13 -193 -12 -211
13 -231 20 -16 41 -19 152 -19 75 0 130 4 134 10 3 6 11 85 16 178 5 92 11
190 14 217 14 167 22 327 18 370 -5 56 13 93 40 82 9 -3 86 -149 172 -324 265
-539 268 -545 311 -570 33 -19 48 -22 95 -17 31 4 80 1 108 -5 67 -14 111 4
111 47 0 15 7 119 16 232 17 211 25 345 27 415 0 22 8 141 17 265 9 124 17
239 17 255 0 17 5 95 10 175 6 83 7 152 2 162 -7 12 -32 18 -116 24 -129 10
-153 8 -175 -14 -18 -19 -37 -163 -44 -342 -2 -58 -6 -143 -10 -190 -3 -47 -9
-140 -13 -208 -4 -69 -13 -128 -19 -134 -17 -17 -46 14 -62 65 -6 23 -25 67
-41 97 -16 30 -29 59 -29 63 0 4 -18 44 -40 88 -22 44 -40 84 -40 89 0 4 -25
55 -56 112 -85 155 -114 212 -114 223 0 6 -9 21 -20 35 -11 14 -20 32 -20 41
0 9 -6 22 -14 28 -8 7 -18 26 -21 42 -10 43 -39 57 -135 64 -47 3 -103 8 -125
10 -22 3 -49 -1 -60 -7z"/>
<path d="M14394 20620 c-40 -3 -83 -14 -97 -23 -30 -20 -30 -6 -3 -357 8 -107
18 -249 21 -315 2 -66 7 -136 10 -155 8 -62 26 -302 31 -405 2 -55 8 -113 14
-128 5 -15 7 -41 4 -57 -7 -32 13 -127 28 -136 16 -10 230 -4 266 7 17 6 36
18 40 27 5 9 5 64 1 122 -4 58 -13 191 -19 295 -6 105 -15 222 -21 260 -5 39
-14 160 -18 270 -5 110 -12 226 -16 258 -4 32 -9 88 -10 125 -4 92 -16 183
-27 205 -10 19 -62 21 -204 7z"/>
<path d="M12635 20325 c-44 -13 -107 -35 -139 -47 -70 -28 -75 -38 -80 -163
-9 -181 -28 -434 -50 -665 -9 -91 -18 -217 -21 -280 -3 -63 -13 -203 -21 -310
-9 -107 -16 -203 -16 -213 1 -31 22 -47 61 -47 38 0 257 72 275 90 6 6 11 43
11 83 1 223 4 247 30 271 14 13 47 29 73 36 26 6 51 15 57 20 6 5 42 16 80 24
168 37 202 45 228 55 46 18 74 13 97 -16 12 -16 44 -57 72 -93 111 -144 151
-170 211 -138 12 6 45 17 72 24 52 13 154 49 163 58 2 3 -6 20 -20 38 -14 18
-33 48 -42 67 -20 38 -76 115 -226 310 -58 75 -113 147 -122 161 -109 156
-184 258 -243 331 -82 102 -135 172 -135 181 0 4 -20 32 -45 62 -25 31 -45 58
-45 62 0 3 -24 32 -52 65 -33 37 -60 59 -73 58 -11 0 -56 -11 -100 -24z m113
-491 c12 -8 22 -21 22 -27 0 -7 32 -55 70 -107 121 -166 127 -175 143 -200 10
-15 13 -31 8 -38 -5 -8 -50 -24 -102 -37 -52 -12 -111 -30 -131 -40 -66 -32
-68 -25 -62 213 6 265 6 268 52 236z"/>
<path d="M17030 20327 c-136 -48 -238 -154 -277 -287 -12 -41 -22 -91 -23
-110 0 -48 27 -149 48 -180 9 -14 24 -38 32 -55 26 -53 152 -168 250 -229 94
-59 240 -155 271 -179 27 -20 39 -53 39 -105 0 -79 -58 -146 -151 -173 -33
-10 -49 -8 -126 16 -81 25 -131 55 -187 111 -21 21 -36 77 -45 168 -9 91 -22
106 -84 106 -21 0 -47 4 -57 10 -10 5 -51 13 -90 16 -69 7 -74 6 -91 -17 -16
-20 -19 -43 -19 -141 0 -82 4 -125 14 -145 8 -15 28 -57 44 -93 19 -42 47 -82
81 -115 59 -57 154 -123 191 -132 14 -3 30 -9 35 -13 6 -5 46 -21 90 -36 75
-27 89 -29 245 -29 160 0 167 1 220 28 78 39 164 121 200 192 17 33 35 64 39
70 4 5 16 41 26 78 26 100 8 254 -40 347 -29 57 -159 173 -255 230 -29 17 -78
48 -109 69 -31 21 -71 46 -88 55 -80 41 -153 139 -138 185 3 11 22 34 41 50
32 29 40 31 114 31 140 0 236 -56 265 -154 8 -27 15 -64 15 -83 0 -41 22 -56
115 -78 39 -9 90 -23 115 -31 60 -19 73 -18 96 7 16 17 18 35 16 117 -3 157
-35 233 -135 331 -65 63 -218 151 -262 151 -12 0 -46 9 -78 20 -84 30 -258 28
-347 -3z"/>
<path d="M11415 19856 c-16 -6 -55 -24 -85 -41 -30 -16 -67 -35 -82 -41 -14
-7 -32 -22 -38 -34 -10 -19 -9 -27 8 -49 11 -15 43 -76 72 -136 120 -252 161
-334 184 -367 13 -20 27 -51 31 -69 4 -19 21 -57 39 -84 62 -95 81 -145 55
-145 -6 0 -38 20 -71 45 -34 25 -90 62 -127 82 -36 20 -88 53 -116 74 -27 20
-97 65 -155 99 -111 67 -189 120 -295 200 -68 51 -113 66 -171 57 -48 -8 -223
-96 -235 -119 -8 -14 -3 -33 20 -80 17 -34 31 -67 31 -75 0 -7 17 -39 39 -71
43 -64 205 -383 215 -424 3 -15 24 -53 45 -85 39 -60 181 -344 181 -364 0 -12
46 -97 65 -119 7 -8 29 -48 49 -88 42 -84 68 -103 113 -80 63 33 159 91 176
105 23 21 22 54 -3 86 -11 14 -20 31 -20 39 0 16 -47 111 -73 148 -9 14 -17
31 -17 39 0 8 -16 45 -35 82 -19 38 -35 73 -35 80 0 6 -13 27 -30 46 -16 18
-30 41 -31 51 0 9 -16 44 -34 77 -19 33 -41 75 -49 93 -8 18 -22 40 -31 48
-17 18 -18 24 -5 44 7 11 13 12 23 5 7 -5 42 -29 78 -52 35 -23 71 -47 79 -52
52 -36 171 -111 175 -111 2 0 57 -35 122 -78 103 -68 173 -113 362 -234 53
-34 73 -34 127 -5 23 12 77 41 122 65 44 24 83 50 86 59 4 9 -1 28 -11 42 -10
14 -28 49 -41 76 -12 28 -27 57 -33 65 -22 35 -109 220 -109 234 0 8 -11 27
-23 43 -21 25 -57 94 -205 388 -260 518 -265 527 -287 535 -11 4 -33 2 -50 -4z"/>
<path d="M18724 19652 c-45 -42 -171 -160 -280 -262 -109 -102 -260 -246 -334
-320 -75 -74 -212 -207 -303 -294 -92 -87 -167 -167 -167 -176 0 -12 29 -31
88 -61 48 -24 106 -57 130 -72 23 -16 48 -27 56 -25 16 3 160 132 219 196 23
23 49 42 61 42 20 0 71 -25 176 -84 25 -14 100 -53 168 -87 96 -48 123 -66
128 -85 6 -23 -7 -135 -27 -237 -5 -27 -9 -60 -9 -73 0 -28 38 -67 90 -93 19
-10 63 -32 96 -49 131 -68 149 -57 159 97 3 58 9 109 11 113 3 5 7 46 9 91 2
45 8 118 14 162 6 44 15 130 21 190 35 392 55 564 69 597 6 16 8 40 5 55 -5
26 18 223 31 269 4 12 -1 28 -12 41 -27 33 -251 143 -287 143 -25 -1 -48 -17
-112 -78z m35 -481 c0 -20 -4 -70 -9 -111 -32 -275 -35 -286 -78 -275 -15 3
-39 15 -54 25 -15 11 -31 20 -35 20 -4 0 -30 12 -58 25 -27 14 -55 25 -61 25
-19 0 -46 38 -37 52 4 8 44 47 88 88 44 41 93 89 110 107 49 52 105 92 121 86
9 -3 14 -19 13 -42z"/>
<path d="M9935 18975 c-27 -19 -66 -45 -85 -59 -85 -58 -102 -90 -65 -121 13
-11 129 -181 155 -227 8 -15 38 -62 65 -103 28 -42 78 -118 112 -170 34 -51
81 -119 105 -151 54 -72 76 -103 171 -239 43 -60 96 -136 120 -169 23 -32 47
-67 53 -77 6 -11 25 -35 43 -54 42 -47 76 -47 121 0 19 20 58 49 88 66 93 53
91 72 -32 244 -39 54 -78 111 -86 126 -19 35 -75 116 -139 204 -28 39 -58 84
-66 101 -7 17 -21 36 -29 43 -8 7 -27 34 -42 59 -15 26 -47 74 -72 107 -44 61
-60 84 -175 255 -35 52 -72 102 -82 110 -10 8 -28 32 -41 52 -30 48 -53 48
-119 3z"/>
<path d="M19964 18928 c-23 -24 -51 -59 -64 -78 -40 -60 -130 -179 -140 -185
-6 -4 -31 -39 -57 -78 -25 -40 -49 -74 -53 -77 -8 -5 -122 -148 -180 -225 -19
-25 -50 -64 -67 -86 -18 -23 -33 -45 -33 -50 0 -5 -18 -28 -39 -52 -36 -39
-92 -114 -198 -263 -66 -95 -64 -100 79 -211 87 -68 112 -74 132 -35 8 16 41
61 73 99 63 77 88 109 193 253 38 52 85 115 104 140 20 25 50 65 69 90 23 32
40 45 58 45 28 0 28 0 9 -140 -7 -49 -14 -103 -16 -120 -2 -16 -8 -75 -14
-130 -5 -55 -14 -120 -20 -145 -5 -25 -14 -102 -20 -171 -5 -70 -14 -139 -20
-153 -11 -30 -13 -108 -4 -144 4 -12 45 -53 92 -90 141 -110 162 -119 183 -79
6 12 38 50 70 84 33 34 59 66 59 72 0 6 21 37 46 68 26 31 60 79 76 105 16 26
48 62 70 80 22 17 47 47 55 67 17 40 47 82 119 166 28 33 71 87 95 121 99 138
169 232 208 279 107 128 121 147 121 160 0 29 -196 175 -236 175 -22 0 -87
-69 -159 -170 -22 -30 -64 -85 -95 -122 -30 -36 -69 -86 -86 -110 -113 -159
-199 -270 -217 -279 -24 -13 -40 6 -31 36 20 65 34 152 40 235 3 52 14 138 24
190 10 52 22 140 26 195 4 55 11 108 16 118 5 10 11 49 12 86 2 36 8 76 14 88
17 31 15 80 -5 110 -10 14 -57 59 -106 99 -107 89 -125 92 -183 32z"/>
<path d="M14992 18354 c-12 -8 -22 -21 -22 -27 0 -17 -77 -167 -99 -192 -9
-11 -23 -33 -31 -49 -8 -15 -45 -62 -82 -105 -38 -42 -82 -98 -98 -126 -34
-59 -61 -85 -155 -151 -38 -27 -93 -67 -121 -89 -84 -66 -161 -118 -217 -147
-28 -15 -57 -32 -64 -38 -23 -19 -243 -100 -273 -100 -14 0 -67 -31 -125 -74
-18 -14 -208 -72 -425 -132 -138 -37 -181 -52 -198 -67 -10 -7 -39 -22 -67
-31 -27 -10 -64 -27 -82 -37 -35 -19 -275 -102 -333 -114 -36 -8 -92 -37 -165
-85 -22 -15 -56 -32 -76 -39 -20 -6 -45 -21 -55 -33 -11 -11 -53 -47 -94 -79
-41 -32 -86 -77 -100 -99 -22 -37 -62 -88 -154 -195 -22 -26 -30 -48 -34 -87
-2 -29 -10 -60 -17 -68 -30 -36 -47 -87 -52 -157 -5 -65 -9 -76 -29 -85 -18
-8 -31 -6 -64 11 -35 18 -58 21 -164 21 -111 0 -129 -3 -182 -26 -32 -14 -75
-39 -95 -55 -20 -16 -46 -29 -56 -29 -43 0 -144 -92 -193 -176 -14 -24 -43
-62 -65 -85 -61 -64 -275 -404 -327 -519 -14 -31 -41 -78 -60 -105 -20 -28
-62 -102 -95 -165 -79 -152 -99 -188 -132 -230 -15 -19 -34 -46 -41 -60 -7
-14 -23 -36 -35 -50 -12 -14 -28 -41 -34 -61 -7 -20 -23 -50 -36 -65 -14 -16
-25 -36 -25 -44 0 -8 -14 -37 -30 -65 -16 -27 -36 -65 -45 -83 -9 -18 -26 -38
-39 -44 -14 -6 -39 -31 -57 -57 -18 -25 -48 -62 -66 -81 -170 -178 -249 -263
-253 -276 -9 -24 -116 -111 -244 -196 -95 -63 -130 -82 -170 -88 -28 -4 -77
-21 -110 -39 -32 -17 -72 -31 -90 -31 -17 0 -53 -11 -81 -25 -35 -17 -68 -25
-110 -25 -86 -2 -177 -23 -189 -44 -9 -15 -6 -22 18 -40 47 -34 196 -169 196
-176 0 -4 32 -41 71 -81 47 -49 81 -96 101 -139 17 -35 45 -83 64 -106 19 -23
43 -66 53 -96 10 -30 25 -68 34 -84 8 -17 17 -75 21 -137 4 -60 14 -126 21
-148 8 -22 12 -52 9 -67 -3 -15 2 -56 11 -90 19 -75 22 -401 5 -497 -6 -33
-15 -134 -20 -225 -4 -91 -13 -187 -19 -215 -22 -96 -12 -495 14 -544 9 -19
15 -57 15 -100 0 -91 20 -183 85 -390 10 -29 35 -78 56 -109 22 -31 44 -74 50
-96 6 -22 29 -66 52 -99 23 -33 52 -74 63 -91 12 -18 44 -54 71 -82 27 -27 61
-66 76 -86 17 -22 54 -51 95 -73 37 -19 91 -60 121 -90 l54 -55 -15 -37 c-9
-21 -27 -74 -42 -119 -25 -78 -26 -86 -21 -289 4 -189 7 -216 30 -294 42 -136
57 -174 79 -203 12 -15 31 -41 43 -57 13 -16 35 -53 49 -82 15 -30 42 -72 61
-93 18 -22 33 -44 33 -50 0 -21 202 -299 270 -371 21 -22 55 -65 76 -95 20
-30 81 -98 133 -151 53 -53 125 -135 161 -183 36 -49 80 -109 99 -135 19 -25
56 -71 81 -101 83 -97 180 -243 194 -291 17 -55 40 -103 71 -144 21 -29 65
-156 65 -189 0 -8 9 -32 19 -53 32 -64 34 -89 9 -113 -19 -17 -20 -23 -10 -38
23 -31 82 -160 82 -179 0 -10 -10 -38 -21 -63 -16 -35 -22 -73 -25 -165 -3
-66 -6 -138 -7 -160 -2 -35 1 -40 21 -43 21 -3 168 35 230 59 13 5 78 9 145 8
69 0 159 6 207 15 107 20 164 20 237 1 34 -9 103 -15 173 -15 101 0 122 -4
175 -26 56 -24 225 -66 343 -84 29 -5 58 -13 65 -18 7 -6 35 -16 62 -23 28 -6
63 -18 78 -26 16 -8 72 -21 125 -29 53 -8 151 -32 217 -54 133 -44 195 -56
335 -66 61 -4 108 -13 132 -25 31 -16 61 -19 189 -19 l152 0 138 45 c89 29
156 45 188 45 27 0 52 4 56 10 3 5 58 35 123 67 64 32 136 72 159 90 24 18 50
33 58 33 8 0 51 -24 96 -54 44 -30 95 -58 112 -62 17 -3 55 -22 83 -41 38 -25
70 -37 116 -43 35 -5 106 -25 158 -46 l95 -36 175 1 c146 2 181 5 210 20 24
12 71 20 144 25 62 4 121 13 137 21 15 8 38 15 51 15 13 0 43 9 67 20 24 11
53 20 65 20 12 0 40 9 61 20 22 12 78 27 125 34 47 8 98 19 113 25 16 6 39 11
52 11 13 0 63 16 110 35 48 19 128 42 178 51 148 25 169 31 237 60 58 25 79
28 195 31 89 2 159 10 223 25 l92 22 88 -19 c49 -11 150 -22 232 -26 109 -5
170 -13 245 -33 154 -40 169 -35 146 53 -7 25 -15 57 -18 71 -3 14 -13 43 -22
65 -25 58 -23 423 2 472 9 18 17 45 17 60 0 15 12 48 26 73 14 24 29 66 34 92
10 52 60 161 89 193 10 11 39 56 65 100 26 44 51 87 56 95 5 8 29 47 52 85 23
39 55 86 70 106 15 20 28 41 28 46 0 9 90 119 153 187 15 16 27 33 27 38 0 9
53 68 136 152 23 22 52 57 64 76 13 19 44 58 69 85 25 28 73 84 106 124 33 40
75 86 95 102 19 16 71 85 115 152 44 68 89 136 99 151 11 15 23 50 27 78 6 34
22 71 54 116 25 37 45 73 45 79 0 7 8 39 19 70 25 79 41 148 41 181 1 15 7 38
15 52 20 34 20 179 0 227 -8 19 -15 63 -15 97 0 59 -4 70 -52 155 -10 16 -15
36 -12 44 6 17 172 163 227 199 42 28 79 70 142 166 20 28 39 52 44 52 21 0
89 74 113 121 30 62 63 150 73 194 3 16 20 50 37 75 46 68 68 142 68 230 0 42
7 100 16 129 13 45 15 110 11 449 -3 222 -10 426 -16 462 -6 37 -13 235 -15
455 -3 319 -1 395 10 417 8 15 14 42 14 60 0 18 16 78 36 133 20 55 41 128 48
161 8 48 21 75 57 120 53 69 109 152 109 162 0 20 74 108 116 138 27 18 56 49
66 68 10 19 43 56 73 82 30 26 55 56 55 65 0 23 -71 45 -165 53 -104 8 -131
13 -164 30 -16 9 -45 16 -64 16 -20 0 -65 17 -111 40 -42 22 -83 40 -90 40
-19 0 -237 105 -268 129 -14 11 -29 32 -32 45 -3 14 -23 34 -43 47 -53 31
-316 305 -398 414 -38 50 -89 115 -115 145 -25 30 -59 80 -74 110 -16 30 -53
91 -81 135 -28 44 -64 103 -80 130 -16 28 -38 61 -51 75 -12 14 -39 61 -60
105 -21 44 -48 94 -60 110 -12 17 -59 102 -104 190 -46 88 -92 171 -102 185
-11 14 -59 86 -108 162 -49 75 -104 153 -123 175 -18 21 -48 61 -67 88 -38 57
-129 155 -145 155 -6 0 -34 18 -64 40 -29 22 -60 40 -70 40 -9 0 -30 8 -46 18
-24 15 -59 20 -160 25 -117 5 -135 3 -179 -16 -33 -14 -53 -17 -63 -11 -18 11
-91 191 -100 248 -11 71 -58 149 -138 229 -41 42 -75 80 -75 86 0 23 -63 101
-112 138 -29 23 -93 62 -143 87 -49 26 -99 56 -111 67 -20 19 -213 99 -238 99
-7 0 -39 9 -72 21 -32 11 -77 25 -99 30 -22 6 -65 22 -95 36 -30 14 -82 37
-115 52 -55 25 -193 68 -355 112 -36 9 -82 24 -102 33 -21 9 -46 16 -57 16
-12 0 -44 15 -73 33 -60 38 -151 72 -218 82 -25 4 -59 16 -76 26 -17 10 -40
19 -51 19 -12 0 -26 7 -33 15 -7 8 -42 30 -79 49 -36 19 -79 41 -96 50 -16 9
-35 16 -41 16 -6 0 -17 6 -23 14 -7 8 -57 45 -113 83 -76 51 -135 104 -239
213 -180 190 -230 259 -318 438 -43 87 -57 96 -99 66z m107 -476 c18 -18 48
-55 67 -83 63 -93 233 -256 317 -305 42 -25 126 -77 185 -117 123 -82 207
-125 309 -157 39 -13 93 -38 120 -56 26 -18 91 -46 143 -63 52 -16 122 -42
155 -57 118 -55 178 -80 195 -80 10 0 52 -11 95 -25 92 -30 202 -61 305 -86
128 -30 305 -96 373 -139 36 -23 90 -50 119 -62 29 -11 72 -37 95 -59 23 -21
50 -39 58 -39 52 0 209 -147 247 -230 12 -25 33 -59 47 -76 15 -16 35 -57 45
-90 9 -32 25 -77 36 -100 16 -37 18 -60 13 -208 -5 -193 2 -226 47 -226 31 0
141 58 181 96 28 27 140 74 175 74 13 0 26 5 29 10 9 14 56 12 85 -5 14 -8 38
-14 53 -15 16 0 44 -7 63 -16 53 -25 220 -199 258 -268 46 -87 87 -153 184
-299 46 -71 93 -152 104 -180 11 -29 26 -59 33 -67 7 -8 16 -27 20 -41 3 -14
24 -49 46 -77 21 -29 39 -56 39 -60 0 -4 10 -25 22 -47 11 -22 29 -61 39 -87
9 -26 33 -66 52 -90 51 -62 146 -210 198 -307 24 -46 61 -98 81 -117 54 -48
199 -210 228 -253 79 -118 252 -296 322 -332 32 -16 90 -58 130 -94 40 -36 91
-74 113 -85 230 -108 279 -130 295 -130 35 0 80 -22 80 -39 0 -10 -14 -37 -30
-60 -17 -23 -48 -76 -69 -119 -20 -42 -54 -102 -73 -133 -54 -82 -95 -177
-107 -241 -6 -32 -18 -72 -28 -90 -11 -22 -19 -68 -24 -138 -3 -58 -12 -136
-18 -175 -13 -81 -21 -460 -10 -491 4 -12 4 -57 0 -100 -4 -43 -4 -101 1 -129
5 -27 13 -79 20 -114 6 -35 13 -217 15 -405 2 -188 4 -348 4 -356 1 -78 -39
-258 -72 -319 -10 -19 -19 -43 -19 -51 0 -54 -95 -253 -148 -312 -21 -23 -46
-55 -57 -73 -19 -31 -121 -121 -220 -194 -26 -19 -59 -48 -73 -64 -15 -16 -43
-36 -62 -44 -19 -8 -53 -27 -75 -42 -22 -14 -49 -31 -60 -37 -28 -15 -30 -48
-7 -87 11 -17 23 -43 27 -57 4 -14 22 -42 41 -62 24 -27 34 -49 38 -85 4 -26
12 -61 18 -78 6 -16 13 -87 15 -157 3 -100 1 -133 -11 -157 -10 -18 -15 -52
-14 -90 1 -50 -3 -66 -25 -100 -15 -22 -27 -44 -27 -48 0 -5 -10 -24 -23 -43
-13 -19 -43 -70 -66 -113 -23 -43 -57 -100 -76 -127 -19 -28 -35 -54 -35 -59
0 -6 -23 -29 -51 -53 -27 -24 -73 -73 -100 -110 -27 -37 -53 -68 -57 -70 -4
-2 -23 -23 -42 -48 -59 -76 -139 -172 -202 -241 -33 -37 -68 -79 -77 -95 -10
-16 -28 -38 -41 -49 -12 -11 -34 -42 -47 -70 -29 -57 -62 -101 -148 -200 -59
-67 -135 -174 -135 -189 0 -4 -31 -58 -69 -119 -85 -140 -161 -298 -176 -367
-4 -19 -16 -48 -27 -63 -11 -16 -26 -50 -32 -75 -15 -56 -30 -61 -77 -28 -18
14 -54 37 -79 51 -25 14 -59 33 -76 43 -36 20 -112 84 -185 154 -27 26 -75 66
-107 88 -31 22 -95 67 -142 101 -47 33 -96 68 -111 77 -49 33 -112 88 -207
183 -54 52 -142 126 -197 164 -157 108 -228 167 -412 350 -95 93 -181 178
-193 188 -11 9 -20 23 -20 30 0 17 181 100 247 112 60 12 337 180 385 233 15
17 53 48 85 70 32 22 74 59 93 82 64 76 147 158 177 173 36 19 153 142 153
162 0 7 25 42 55 77 31 35 72 89 93 121 20 31 59 88 85 125 27 37 55 83 63
102 8 19 21 41 28 50 8 8 17 26 21 40 8 27 74 171 106 232 10 20 19 49 19 64
0 14 8 48 17 74 l17 48 -27 41 c-30 46 -65 64 -102 55 -24 -6 -67 -49 -135
-134 -62 -78 -113 -131 -139 -145 -15 -7 -50 -36 -79 -64 -28 -28 -69 -59 -90
-70 -20 -11 -66 -43 -102 -71 -128 -104 -66 -11 129 191 46 48 97 109 114 136
16 26 45 66 63 88 18 22 35 52 39 67 4 15 42 63 86 108 50 51 79 89 79 103 0
12 9 37 20 55 11 18 20 38 20 45 0 7 17 40 39 73 25 38 40 75 43 104 3 26 27
92 56 150 29 61 58 139 68 185 9 44 23 94 30 112 18 42 16 248 -3 285 -28 57
-90 64 -149 17 -38 -30 -69 -72 -149 -204 -22 -36 -62 -96 -89 -133 -26 -37
-51 -74 -54 -82 -9 -24 -134 -215 -143 -218 -5 -2 -18 -19 -29 -38 -23 -35
-40 -44 -40 -20 0 18 59 197 69 211 15 20 59 162 71 225 6 36 16 88 22 115 6
28 14 84 19 125 17 154 30 236 44 287 23 77 20 1363 -2 1408 -24 48 -74 95
-101 95 -63 0 -132 -63 -132 -120 0 -30 -47 -277 -55 -290 -3 -5 -9 -28 -14
-52 -32 -155 -45 -209 -61 -253 -16 -45 -23 -78 -35 -165 -8 -63 -47 -184 -78
-246 -38 -77 -97 -269 -97 -319 0 -18 -8 -43 -18 -56 -33 -43 -62 -100 -62
-120 0 -11 -26 -75 -59 -142 -32 -67 -61 -135 -65 -151 -4 -16 -25 -55 -47
-87 -21 -32 -39 -62 -39 -68 0 -5 -11 -22 -24 -38 -31 -38 -110 -169 -130
-217 -9 -21 -16 -51 -16 -67 0 -18 -15 -47 -43 -81 -23 -29 -50 -64 -60 -78
-20 -29 -337 -360 -424 -443 -34 -33 -86 -75 -115 -95 -29 -19 -78 -52 -108
-72 -69 -47 -151 -90 -169 -90 -7 0 -39 -11 -70 -24 -131 -56 -196 -80 -249
-93 -111 -29 -103 -31 -144 36 -21 34 -38 65 -38 70 0 5 -7 14 -16 21 -8 8
-14 25 -12 39 2 20 11 27 38 34 75 18 417 184 460 222 14 12 73 55 131 94 114
76 293 254 336 332 12 22 39 61 61 87 22 26 54 76 71 112 17 35 40 73 50 84
38 41 134 211 157 277 13 38 24 88 24 111 0 24 9 59 19 79 25 47 39 99 51 195
6 42 18 89 27 103 13 18 20 53 23 116 l5 90 217 5 c150 3 221 9 229 17 7 7 16
34 20 60 9 53 -7 311 -22 359 -5 17 -9 53 -9 80 0 54 -34 221 -76 369 -7 28
-20 78 -29 112 -8 35 -24 81 -35 103 -11 21 -20 47 -20 56 0 19 -27 106 -46
149 -7 17 -24 60 -38 97 -14 37 -41 91 -60 120 -20 29 -73 110 -118 180 -98
149 -172 227 -353 367 -39 30 -77 62 -85 72 -8 9 -51 38 -95 64 -44 26 -89 56
-100 66 -25 23 -259 139 -280 139 -8 0 -43 15 -77 34 -68 38 -207 89 -303 113
-59 14 -155 47 -185 62 -8 5 -16 17 -18 27 -2 10 -9 35 -17 54 -17 45 -45 197
-45 248 0 22 -7 59 -15 82 -8 23 -15 54 -15 69 0 14 -6 55 -15 91 -8 36 -19
92 -26 125 -6 33 -15 70 -20 83 -5 13 -9 39 -9 58 0 19 -7 51 -15 71 -8 19
-15 53 -15 75 0 21 -7 55 -15 75 -8 19 -15 64 -15 98 0 35 -9 90 -20 126 -12
35 -25 92 -30 126 -4 34 -11 67 -15 72 -3 6 -10 50 -16 98 -5 48 -17 111 -25
140 -31 101 -1 109 82 22 64 -65 99 -89 137 -89 50 0 58 35 28 115 -29 76 -49
145 -55 190 -3 22 -17 69 -31 104 -16 38 -24 73 -21 87 3 12 41 50 83 83 71
55 158 131 235 203 15 14 28 36 28 47 0 37 -35 44 -229 47 -172 3 -185 4 -206
24 -24 22 -92 217 -116 331 -18 83 -35 111 -67 107 -30 -3 -45 -29 -61 -103
-5 -27 -17 -79 -26 -115 -8 -36 -20 -92 -26 -124 -21 -122 -30 -126 -283 -126
-186 0 -196 -1 -206 -20 -6 -12 -9 -29 -5 -38 7 -23 60 -74 112 -109 101 -68
236 -179 245 -202 12 -32 5 -71 -31 -181 -33 -99 -71 -255 -71 -287 0 -29 14
-36 58 -28 28 5 57 27 123 92 97 94 122 103 127 43 2 -19 -3 -62 -11 -95 -9
-33 -23 -100 -32 -150 -9 -49 -22 -117 -30 -150 -53 -224 -64 -277 -70 -335
-3 -36 -10 -74 -15 -85 -16 -37 -32 -110 -39 -177 -5 -37 -13 -73 -19 -80 -5
-7 -15 -49 -21 -93 -6 -44 -17 -105 -26 -135 -8 -30 -15 -66 -15 -80 0 -28
-21 -135 -50 -258 -11 -45 -22 -97 -24 -114 -5 -38 -25 -54 -79 -63 -54 -9
-149 -35 -162 -45 -5 -4 -26 -11 -45 -15 -19 -4 -78 -25 -130 -47 -52 -22
-129 -50 -170 -63 -126 -39 -224 -93 -500 -274 -85 -55 -152 -118 -280 -261
-37 -41 -82 -91 -101 -111 -20 -20 -42 -49 -50 -65 -8 -16 -32 -56 -53 -89
-22 -33 -49 -76 -61 -95 -12 -19 -45 -72 -74 -117 -28 -45 -55 -93 -61 -107
-5 -14 -41 -82 -80 -151 -38 -69 -70 -132 -70 -139 0 -8 -18 -67 -41 -133 -22
-65 -45 -134 -50 -153 -47 -185 -61 -257 -70 -348 -6 -59 -15 -121 -20 -138
-5 -17 -9 -40 -9 -52 0 -13 -6 -22 -15 -22 -14 0 -45 83 -45 124 -1 12 -7 32
-15 46 -8 14 -14 42 -15 62 0 44 -17 120 -36 166 -8 18 -14 43 -14 55 0 12 -8
49 -19 82 -25 79 -41 143 -56 235 -7 41 -18 88 -24 103 -6 16 -11 40 -11 55 0
54 -79 132 -134 132 -17 0 -41 -13 -69 -39 l-42 -40 -1 -163 c0 -90 -6 -194
-13 -233 -7 -38 -14 -153 -15 -255 -3 -158 0 -202 19 -297 18 -89 21 -138 19
-241 -3 -103 1 -158 21 -276 14 -81 25 -164 25 -184 0 -20 11 -83 25 -140 14
-57 25 -120 25 -140 0 -20 9 -51 19 -68 13 -21 20 -55 23 -110 3 -63 10 -93
35 -147 36 -76 51 -137 34 -137 -6 0 -11 6 -11 14 0 8 -16 33 -35 56 -19 23
-49 69 -67 103 -18 34 -63 94 -100 133 -37 40 -79 97 -94 126 -15 29 -42 76
-60 104 -19 28 -34 55 -34 59 0 5 -15 30 -32 57 -57 84 -146 91 -212 17 -35
-38 -36 -42 -30 -92 8 -61 32 -145 67 -238 13 -36 28 -90 32 -120 10 -82 43
-164 148 -364 8 -16 30 -59 47 -95 65 -133 160 -271 241 -351 25 -25 63 -70
83 -100 58 -86 81 -115 137 -177 58 -63 109 -130 109 -144 0 -14 -27 -9 -62
13 -18 11 -55 34 -81 50 -26 16 -57 44 -68 63 -11 19 -39 46 -62 61 -23 16
-77 65 -120 111 -99 106 -167 163 -203 170 -22 4 -38 -1 -66 -23 -69 -53 -75
-114 -18 -202 22 -34 40 -66 40 -72 0 -17 71 -152 113 -214 23 -33 54 -85 70
-115 16 -30 38 -64 48 -76 10 -11 19 -24 19 -28 0 -5 20 -37 45 -72 25 -34 45
-66 45 -71 0 -4 23 -33 50 -62 27 -30 56 -74 64 -98 18 -53 79 -129 120 -150
46 -23 85 -58 143 -125 71 -84 164 -159 259 -213 45 -25 106 -68 135 -96 34
-31 69 -53 94 -59 22 -6 69 -24 105 -40 62 -29 128 -53 235 -86 80 -26 85 -47
19 -95 -25 -19 -122 -112 -216 -207 -95 -95 -195 -188 -224 -208 -30 -19 -72
-57 -95 -84 -23 -28 -47 -50 -52 -50 -11 0 -108 -82 -172 -145 -44 -44 -181
-151 -302 -234 -144 -101 -204 -146 -268 -201 -143 -125 -183 -158 -237 -198
-31 -23 -62 -42 -67 -42 -15 0 -41 42 -41 67 0 13 -20 65 -44 115 -24 51 -51
120 -61 153 -25 89 -80 182 -154 260 -83 88 -111 125 -151 200 -18 33 -51 83
-75 110 -23 28 -46 61 -50 74 -7 23 -68 90 -242 268 -40 41 -73 78 -73 83 0 5
-34 48 -75 95 -41 48 -75 89 -75 93 0 4 -14 23 -30 42 -32 36 -147 206 -170
250 -12 23 -41 61 -137 181 -22 27 -33 51 -33 72 0 18 -10 48 -21 67 -31 51
-49 105 -60 190 -6 41 -18 90 -27 109 -14 31 -14 36 1 63 11 19 17 52 17 91 1
45 7 76 25 112 14 28 25 57 25 65 0 8 9 26 20 40 11 14 20 31 20 38 0 7 11 34
25 60 14 26 25 55 25 65 0 28 -43 64 -91 77 -56 15 -109 53 -189 134 -35 36
-82 77 -105 91 -22 15 -53 44 -70 66 -16 23 -49 56 -73 76 -45 37 -72 79 -72
113 0 20 -24 63 -97 176 -13 19 -23 45 -23 58 0 13 -11 44 -25 70 -20 37 -25
62 -25 114 0 38 -10 109 -24 162 -22 88 -24 116 -25 360 0 146 4 292 9 325 6
33 15 101 20 152 5 51 14 102 21 114 8 17 8 31 0 60 -8 25 -11 146 -11 361 1
309 0 328 -24 441 -14 64 -33 131 -42 148 -8 17 -22 57 -30 88 -8 31 -28 84
-45 119 -16 34 -39 91 -50 127 -15 51 -32 79 -77 128 -32 34 -71 81 -87 105
-40 60 -29 75 62 83 46 5 86 15 119 33 27 14 53 26 57 26 5 0 29 14 53 31 25
17 79 46 119 65 48 22 83 46 100 68 14 18 54 53 88 76 156 107 296 250 383
388 21 35 54 82 72 104 17 22 32 45 32 52 0 7 29 38 65 70 47 41 65 64 65 82
0 27 69 155 104 194 25 27 69 94 137 210 24 41 49 84 56 95 11 18 43 79 69
130 95 185 108 210 120 225 7 8 26 42 43 75 16 33 50 89 75 125 25 36 55 83
65 105 11 22 66 97 123 167 57 70 118 147 136 172 46 65 105 92 217 100 87 7
92 6 150 -24 33 -16 67 -30 75 -30 8 0 40 -17 71 -39 31 -21 65 -42 77 -45 11
-4 26 -13 32 -21 7 -8 23 -15 36 -15 43 0 52 31 53 198 1 97 6 162 13 175 7
12 15 47 19 77 3 30 14 71 23 90 36 75 60 116 86 150 15 19 30 44 34 55 10 34
117 131 181 166 33 17 67 37 75 44 8 7 38 25 65 40 28 15 81 50 119 79 59 46
88 59 215 100 80 25 153 46 161 46 8 0 37 8 65 19 97 36 121 44 240 77 164 45
220 66 302 114 38 22 78 40 88 40 24 0 145 47 261 101 22 10 45 19 52 19 6 0
37 16 69 35 31 19 69 37 84 40 15 3 44 21 66 40 21 18 57 43 78 55 56 31 222
120 267 142 21 10 46 31 55 46 25 39 110 137 179 207 33 33 87 91 121 128 69
76 71 77 132 15z m2677 -6163 c8 -19 -22 -65 -41 -65 -18 0 -18 2 -1 45 16 37
33 45 42 20z m-5041 -272 c39 -8 99 -18 134 -23 70 -9 81 -18 81 -68 0 -18 6
-45 14 -60 8 -15 19 -54 24 -87 17 -98 33 -157 58 -214 13 -29 24 -73 24 -97
0 -23 5 -46 10 -49 6 -3 10 -21 10 -38 0 -18 8 -46 18 -63 9 -17 38 -70 65
-117 26 -47 58 -94 70 -104 13 -10 33 -45 46 -78 15 -37 42 -79 71 -110 27
-27 56 -65 65 -84 10 -19 48 -67 85 -106 37 -39 72 -81 79 -93 16 -31 154
-147 199 -167 20 -10 53 -32 72 -51 19 -18 67 -48 105 -65 39 -18 95 -47 125
-65 30 -17 71 -35 90 -39 19 -4 49 -15 65 -24 17 -9 75 -32 130 -50 140 -46
145 -49 145 -67 0 -20 -62 -139 -93 -177 l-23 -29 -114 54 c-124 59 -144 67
-265 105 -99 31 -163 63 -207 103 -18 17 -53 40 -78 51 -75 34 -85 41 -153
118 -37 41 -86 85 -109 98 -53 30 -102 76 -131 123 -34 56 -102 142 -142 180
-20 19 -43 50 -50 68 -8 18 -29 47 -47 65 -18 18 -48 57 -66 87 -18 30 -41 66
-51 80 -53 72 -81 124 -81 150 0 16 -10 45 -22 65 -32 50 -99 152 -131 199
-15 22 -30 57 -33 78 -4 21 -20 59 -37 86 -49 74 -66 118 -83 211 -9 47 -25
112 -36 144 -27 80 -22 89 44 81 29 -3 85 -13 123 -21z m4822 -985 c-3 -8 -6
-5 -6 6 -1 11 2 17 5 13 3 -3 4 -12 1 -19z m-4211 -845 c-10 -10 -19 5 -10 18
6 11 8 11 12 0 2 -7 1 -15 -2 -18z m4044 -54 c0 -5 -7 -9 -15 -9 -15 0 -20 12
-9 23 8 8 24 -1 24 -14z m-230 -49 c0 -5 -4 -10 -10 -10 -5 0 -10 5 -10 10 0
6 5 10 10 10 6 0 10 -4 10 -10z m-4352 -106 c-9 -9 -21 -13 -27 -9 -16 10 -3
25 22 25 20 0 20 -1 5 -16z m-93 -144 c3 -5 -1 -10 -9 -10 -9 0 -16 5 -16 10
0 6 4 10 9 10 6 0 13 -4 16 -10z m2124 -297 c1 -137 4 -772 6 -1413 l3 -1165
28 -50 c41 -76 56 -85 145 -85 82 0 91 5 123 67 14 28 16 126 22 840 3 444 7
828 7 853 0 25 1 135 0 245 0 110 2 227 4 260 2 33 3 76 3 95 -2 56 -2 84 2
315 3 190 5 223 21 245 9 13 17 20 17 14 0 -6 22 -49 50 -95 27 -46 50 -94 50
-106 0 -12 13 -37 29 -55 15 -18 36 -49 46 -68 10 -19 26 -46 35 -60 10 -14
36 -53 58 -88 l40 -63 -3 -357 c-1 -196 1 -375 6 -397 9 -46 11 -320 6 -740
-4 -376 -9 -825 -8 -847 1 -10 10 -27 21 -38 18 -18 33 -20 144 -20 172 0 170
-3 167 163 -1 69 2 143 8 164 5 21 12 101 15 178 11 247 20 618 18 675 -3 75
19 302 31 318 5 7 32 12 63 12 35 0 67 7 91 20 37 20 114 27 147 14 9 -4 44
-40 78 -82 52 -64 62 -83 65 -121 2 -25 4 -315 6 -643 l2 -597 24 -25 c24 -25
28 -26 156 -26 103 0 135 3 153 16 l23 16 -2 336 c-1 185 -1 382 0 436 0 55
-2 110 -5 123 -9 33 21 41 54 14 15 -11 43 -30 62 -40 19 -11 60 -40 90 -66
30 -26 82 -70 115 -98 33 -28 110 -101 170 -161 165 -166 338 -289 428 -304
l42 -8 5 -134 5 -135 35 -17 c19 -10 53 -17 75 -18 22 0 146 0 275 0 129 0
251 -4 270 -8 l35 -8 0 -134 c0 -151 -6 -166 -59 -153 -46 11 -674 6 -721 -6
-22 -6 -58 -15 -80 -20 -22 -5 -96 -20 -165 -31 -184 -31 -270 -49 -320 -66
-25 -9 -74 -24 -110 -34 -36 -11 -88 -28 -115 -40 -66 -28 -295 -90 -334 -90
-17 0 -48 -6 -68 -14 -21 -8 -61 -17 -89 -19 -28 -3 -92 -17 -142 -32 -86 -25
-99 -26 -259 -21 -92 3 -186 10 -208 15 -22 6 -56 11 -75 11 -43 1 -112 24
-210 72 -41 20 -100 48 -130 62 -92 44 -149 81 -187 119 -48 50 -76 49 -127
-6 -43 -45 -143 -107 -286 -175 -148 -70 -181 -82 -232 -82 -27 0 -65 -7 -86
-16 -30 -14 -70 -16 -217 -15 -167 2 -185 4 -243 27 -35 14 -96 29 -137 33
-40 5 -78 12 -85 16 -7 4 -37 11 -68 15 -157 22 -189 31 -398 116 -62 26 -202
57 -308 69 -33 4 -71 11 -85 17 -14 5 -70 14 -124 19 -53 5 -120 18 -147 29
-47 18 -102 23 -260 21 -25 -1 -81 -2 -125 -2 -44 -1 -93 -1 -110 1 -69 4
-282 -9 -308 -19 -35 -14 -33 -14 -51 5 -12 11 -16 35 -16 89 0 41 -4 85 -10
99 -6 18 -5 38 6 71 9 25 19 46 22 47 15 3 521 7 902 6 223 0 419 0 435 1 98
3 650 11 1003 14 350 4 416 7 429 19 12 13 14 48 13 204 -3 243 -5 287 -13
301 -4 6 -9 152 -12 324 -3 173 -11 427 -17 564 -6 138 -12 302 -13 365 -2
110 -9 264 -19 454 -4 83 -2 94 24 145 31 62 156 271 171 286 5 5 9 17 9 26 0
10 19 46 43 81 24 35 56 86 72 113 78 137 83 129 84 -162z m1849 195 c2 -12
-3 -18 -16 -18 -22 0 -46 23 -35 34 13 13 48 1 51 -16z m-4483 -108 c3 -5 -1
-10 -9 -10 -9 0 -16 5 -16 10 0 6 4 10 9 10 6 0 13 -4 16 -10z m4793 -42 c-3
-7 -13 -13 -23 -13 -10 0 -20 6 -22 13 -3 7 5 12 22 12 17 0 25 -5 23 -12z
m-4558 -209 c0 -12 -29 -24 -37 -16 -3 4 -3 13 0 21 6 16 37 11 37 -5z m5042
-146 c-22 -18 -28 -7 -12 23 13 23 15 24 21 7 4 -11 1 -23 -9 -30z m-4622
-252 c14 -27 13 -41 -3 -41 -19 0 -50 37 -42 49 10 17 33 13 45 -8z m4142 -36
c0 -5 -5 -11 -11 -13 -6 -2 -11 4 -11 13 0 9 5 15 11 13 6 -2 11 -8 11 -13z
m-3832 -171 c0 -9 -7 -14 -17 -12 -25 5 -28 28 -4 28 12 0 21 -6 21 -16z
m3633 -10 c14 -15 -15 -44 -43 -44 -33 0 -38 11 -14 34 16 16 46 21 57 10z
m-2891 -409 c20 -8 66 -17 104 -21 38 -4 74 -11 80 -16 8 -6 12 -60 12 -161 1
-84 4 -235 7 -337 4 -102 5 -214 4 -250 -1 -36 -2 -78 -1 -95 4 -62 1 -271 -4
-287 -3 -9 -15 -18 -27 -21 -12 -3 -374 -6 -805 -7 -779 -1 -783 -1 -772 19 5
11 32 35 58 52 78 54 265 215 486 419 85 78 197 173 335 282 67 52 219 224
263 295 17 28 42 57 55 64 13 7 35 28 49 46 22 29 30 33 73 33 27 0 64 -7 83
-15z"/>
<path d="M9295 18330 c-11 -5 -35 -9 -53 -9 -66 -2 -184 -75 -299 -186 -28
-27 -142 -137 -252 -244 -111 -107 -201 -202 -201 -211 0 -14 216 -253 540
-595 26 -27 76 -81 112 -120 149 -160 264 -282 295 -313 18 -18 33 -37 33 -42
0 -22 41 -50 72 -50 25 0 44 11 83 49 27 27 96 94 153 150 57 55 133 126 170
158 37 32 76 69 87 83 11 14 49 56 84 95 45 49 76 97 107 163 40 84 44 101 44
167 0 46 -6 89 -16 112 -77 182 -167 279 -301 324 -64 21 -73 21 -171 3 -48
-9 -62 8 -62 78 0 55 -18 134 -42 184 -17 35 -93 118 -137 148 -35 25 -78 38
-201 61 -14 2 -34 0 -45 -5z m76 -341 c16 -11 41 -41 55 -65 39 -66 30 -117
-36 -199 -56 -71 -241 -245 -260 -245 -20 0 -209 202 -203 217 3 7 66 73 140
146 104 102 145 136 181 149 63 22 89 22 123 -3z m476 -438 c42 -30 93 -119
93 -161 0 -47 -40 -100 -175 -236 -140 -141 -176 -170 -196 -159 -5 4 -31 30
-57 58 -26 29 -61 65 -79 82 -55 52 -91 104 -86 123 5 15 67 74 255 240 98 87
176 103 245 53z"/>
<path d="M21820 17146 c-19 -13 -67 -43 -105 -67 -39 -24 -102 -65 -140 -92
-92 -62 -273 -181 -364 -237 -97 -61 -237 -153 -286 -190 -22 -16 -63 -43 -90
-59 -74 -42 -239 -160 -248 -177 -6 -10 -2 -25 10 -42 10 -15 36 -58 58 -96
68 -118 99 -128 191 -61 27 19 103 71 169 114 66 44 140 94 165 111 25 17 86
58 135 91 50 33 117 79 150 104 65 47 103 59 86 27 -5 -10 -33 -43 -62 -73
-49 -51 -188 -201 -410 -439 -54 -58 -118 -131 -144 -163 l-46 -57 23 -39 c62
-105 121 -183 146 -192 27 -10 120 12 202 48 19 8 116 44 215 79 332 116 402
142 421 153 39 22 104 39 111 28 7 -12 -16 -31 -117 -96 -41 -27 -100 -64
-131 -85 -31 -20 -59 -36 -62 -36 -4 0 -41 -24 -82 -52 -42 -29 -97 -66 -123
-83 -26 -16 -90 -60 -142 -97 -52 -37 -105 -74 -117 -83 -33 -23 -29 -45 24
-122 83 -122 93 -133 124 -133 15 0 31 5 35 11 3 6 22 18 42 26 19 8 58 32 87
54 28 21 55 39 59 39 6 0 65 38 76 50 11 11 304 207 359 240 32 19 68 43 78
53 11 9 22 17 26 17 9 0 73 45 115 80 42 35 167 120 178 120 4 0 30 17 58 38
28 20 71 51 96 67 54 36 62 45 56 67 -2 10 -55 94 -117 188 -75 114 -120 172
-135 176 -12 3 -44 -3 -70 -14 -50 -19 -112 -41 -194 -69 -25 -8 -79 -28 -120
-45 -41 -16 -91 -33 -110 -38 -19 -4 -57 -17 -85 -28 -137 -55 -268 -102 -285
-102 -10 0 -22 5 -25 10 -6 10 75 107 185 222 30 32 69 75 87 95 31 37 127
143 188 209 155 167 173 193 157 226 -31 61 -63 110 -125 192 -37 49 -67 94
-67 101 0 16 -43 55 -61 55 -8 0 -30 -11 -49 -24z"/>
<path d="M7643 16522 c-34 -27 -196 -302 -217 -370 -6 -19 26 -55 251 -275
142 -139 292 -284 333 -322 41 -38 79 -75 83 -82 23 -37 -38 -38 -118 -2 -22
10 -52 19 -67 19 -14 0 -82 18 -150 40 -68 23 -143 43 -168 47 -25 3 -65 13
-90 23 -87 33 -155 54 -205 62 -138 23 -130 23 -157 -13 -27 -37 -128 -214
-165 -291 -33 -69 -30 -82 25 -114 26 -16 61 -37 77 -46 17 -10 59 -33 95 -50
36 -18 86 -47 111 -65 26 -18 50 -33 55 -33 5 0 32 -15 59 -33 28 -19 64 -41
80 -49 90 -46 242 -131 255 -142 16 -14 246 -146 254 -146 7 0 166 -91 218
-126 76 -49 91 -46 138 29 116 184 112 173 82 200 -10 10 -22 17 -26 17 -9 0
-434 241 -476 270 -14 9 -61 36 -105 60 -44 23 -87 48 -95 55 -8 7 -25 16 -37
19 -26 8 -53 32 -53 48 0 12 75 1 110 -17 14 -7 45 -16 70 -20 25 -4 63 -15
85 -25 22 -10 92 -30 155 -45 63 -14 137 -35 164 -46 27 -10 58 -19 70 -19 11
0 71 -16 131 -35 164 -52 164 -52 225 60 18 33 44 77 57 97 33 50 26 75 -38
130 -28 23 -72 65 -97 92 -26 27 -65 65 -87 85 -22 20 -60 57 -85 82 -25 25
-99 94 -165 153 -187 167 -242 222 -231 233 8 8 91 -33 156 -76 30 -21 81 -53
114 -72 32 -19 70 -41 85 -50 14 -9 60 -34 101 -56 41 -22 93 -51 115 -63 22
-13 68 -39 103 -57 35 -19 84 -48 110 -64 25 -16 54 -29 63 -29 20 0 50 39 77
97 10 21 30 57 45 80 36 57 35 81 -6 98 -18 7 -56 29 -84 49 -29 20 -55 36
-57 36 -3 0 -40 21 -83 46 -117 70 -141 84 -223 129 -79 44 -150 86 -239 144
-30 19 -75 46 -100 59 -26 13 -64 35 -86 49 -22 13 -76 45 -120 70 -167 95
-221 127 -257 150 -44 27 -38 27 -65 5z"/>
<path d="M22800 14995 c-79 -10 -487 -28 -825 -36 -214 -5 -421 -12 -460 -16
-80 -9 -89 -22 -57 -76 11 -17 27 -57 37 -87 46 -146 80 -169 230 -151 140 17
168 15 193 -12 23 -24 71 -130 124 -272 53 -144 64 -170 76 -192 18 -32 7 -47
-94 -139 -48 -44 -102 -98 -119 -122 l-33 -42 25 -68 c48 -132 55 -147 76
-184 37 -67 50 -63 158 53 100 107 106 113 212 214 235 223 347 327 378 352
32 26 172 160 400 385 83 82 104 117 79 133 -5 3 -18 34 -29 68 -26 84 -67
164 -88 175 -18 10 -238 22 -283 17z m-94 -320 c18 -15 18 -16 -11 -41 -16
-15 -73 -65 -125 -113 -52 -47 -113 -103 -136 -123 -23 -21 -49 -38 -57 -38
-18 0 -57 68 -57 98 0 11 -16 46 -35 77 -68 114 -64 120 88 129 246 15 282 17
286 22 8 8 27 4 47 -11z"/>
<path d="M6825 14535 c-27 -13 -55 -25 -61 -25 -17 0 -113 -88 -146 -134 -15
-21 -28 -51 -28 -65 0 -14 -12 -48 -25 -76 -14 -27 -25 -56 -25 -63 0 -7 -8
-27 -17 -45 -9 -18 -20 -48 -24 -67 -11 -49 -37 -128 -59 -175 -10 -22 -22
-58 -28 -80 -17 -65 -49 -167 -63 -203 -17 -40 -7 -59 41 -77 125 -45 204 -76
214 -84 6 -5 27 -12 46 -16 69 -14 336 -108 403 -141 38 -19 81 -34 97 -34 16
0 41 -5 57 -11 15 -6 55 -19 88 -29 33 -10 92 -30 130 -45 39 -14 113 -39 165
-54 52 -16 118 -37 147 -47 43 -15 54 -16 67 -5 9 7 16 20 16 28 0 8 16 42 35
74 19 33 35 70 35 82 0 12 9 42 20 66 11 24 20 53 20 65 0 11 12 48 25 81 14
33 25 74 25 91 0 17 11 52 25 78 14 26 25 54 25 64 0 9 11 57 24 106 40 151
46 182 40 237 -6 61 -22 109 -35 109 -5 0 -15 12 -21 28 -15 33 -102 130 -143
157 -99 67 -280 103 -365 73 -40 -13 -108 -58 -134 -87 -29 -32 -43 -26 -70
27 -35 70 -101 136 -176 178 -61 34 -72 37 -170 41 -97 3 -109 2 -155 -22z
m224 -325 c42 -21 81 -85 81 -131 0 -13 -12 -62 -26 -109 -14 -47 -30 -103
-36 -125 -6 -22 -19 -59 -29 -83 -10 -23 -19 -49 -19 -56 0 -7 -7 -19 -16 -26
-13 -11 -35 -7 -132 25 -169 55 -164 44 -106 211 26 77 54 159 62 184 18 53
44 85 92 111 45 24 82 24 129 -1z m628 -157 c43 -20 93 -86 93 -124 0 -59 -93
-379 -129 -448 -16 -29 -42 -27 -152 12 -52 19 -114 40 -139 48 -40 12 -45 18
-48 46 -2 18 6 54 18 80 11 26 25 68 31 93 5 25 19 64 29 88 33 71 57 126 63
144 4 10 28 31 54 48 56 35 124 40 180 13z"/>
<path d="M23380 13568 c-31 -13 -201 -46 -300 -58 -41 -4 -113 -17 -160 -28
-92 -22 -144 -32 -290 -57 -52 -8 -115 -21 -140 -27 -69 -17 -178 -38 -245
-48 -248 -36 -249 -37 -230 -145 23 -133 42 -180 75 -186 8 -2 42 2 75 9 33 6
101 19 150 28 50 9 133 24 185 34 52 10 138 26 190 35 52 9 118 23 146 32 48
14 94 11 94 -6 0 -4 -33 -39 -73 -77 -68 -63 -104 -95 -258 -224 -30 -25 -83
-72 -119 -105 -36 -34 -83 -74 -105 -90 -57 -41 -205 -186 -215 -210 -4 -11
-2 -52 5 -90 7 -39 16 -96 20 -128 10 -84 26 -92 136 -72 46 9 100 20 119 25
19 5 58 12 85 15 28 4 73 12 100 20 28 7 82 16 120 19 39 4 99 16 134 26 35
11 85 20 112 20 26 0 68 6 91 14 43 14 85 21 213 34 39 4 79 13 90 19 11 6 43
14 70 18 102 13 250 47 257 59 4 6 8 45 8 86 0 58 -6 87 -24 125 -36 79 -34
78 -187 49 -202 -38 -344 -64 -439 -79 -81 -13 -117 -20 -240 -50 -30 -8 -59
-10 -63 -5 -13 12 1 48 22 55 9 3 26 13 37 23 10 9 39 33 64 53 25 20 66 56
92 80 25 24 99 89 163 144 339 290 423 368 431 402 4 13 -1 50 -9 81 -9 31
-19 82 -22 112 -4 30 -12 61 -17 68 -13 15 -113 15 -148 0z"/>
<path d="M6130 12235 c-8 -9 -13 -55 -15 -127 -1 -62 -6 -131 -10 -153 -15
-87 -2 -106 202 -296 361 -336 398 -371 401 -385 2 -8 -2 -14 -10 -15 -49 -3
-499 3 -524 7 -31 6 -72 -9 -86 -30 -4 -6 -8 -66 -8 -132 0 -158 4 -164 119
-174 45 -4 99 -4 119 -1 20 4 55 4 77 0 22 -5 146 -8 275 -9 129 -1 244 -5
255 -9 11 -5 30 -5 42 0 12 4 59 4 105 -1 46 -5 185 -11 311 -13 206 -2 229
-1 243 15 21 22 30 267 11 291 -9 12 -39 17 -122 21 -60 3 -163 8 -227 12
l-117 7 -101 104 c-77 80 -98 108 -91 120 4 9 46 36 92 61 46 25 116 62 154
83 39 20 108 56 155 80 47 23 99 52 115 65 17 12 63 39 103 59 45 22 72 42 73
53 7 99 5 350 -3 360 -24 29 -50 17 -330 -154 -75 -46 -139 -84 -142 -84 -3 0
-29 -14 -58 -31 -29 -18 -73 -43 -98 -57 -25 -14 -58 -36 -73 -48 -16 -13 -32
-24 -36 -24 -5 0 -50 -25 -100 -55 -51 -30 -98 -55 -106 -55 -15 0 -187 163
-409 387 -72 72 -140 134 -152 138 -13 3 -26 -1 -34 -10z"/>
<path d="M22318 11775 c-2 -3 -20 -7 -38 -9 -44 -5 -57 -25 -65 -99 -9 -89 2
-662 14 -724 11 -55 66 -154 127 -229 105 -127 290 -206 525 -223 153 -11 269
-7 345 12 33 8 81 20 109 26 69 17 162 63 210 105 22 20 43 36 47 36 17 0 116
140 138 195 35 87 40 128 45 350 3 110 7 265 9 345 2 80 0 152 -5 161 -12 23
-164 32 -494 30 -143 0 -282 3 -310 7 -27 4 -124 5 -215 2 -107 -4 -207 -2
-285 7 -136 14 -150 15 -157 8z m1151 -360 c11 -6 12 -39 7 -164 -8 -180 -22
-239 -71 -300 -80 -100 -147 -121 -382 -121 -317 1 -413 33 -481 165 -24 48
-25 56 -25 231 0 100 4 187 8 194 6 9 115 11 469 8 254 -3 468 -8 475 -13z"/>
<path d="M7520 10509 c-47 -11 -119 -23 -160 -28 -124 -15 -373 -52 -410 -62
-72 -17 -198 -42 -285 -55 -49 -7 -117 -18 -150 -24 -33 -6 -98 -14 -145 -19
-86 -8 -194 -35 -217 -53 -15 -12 -16 -55 -4 -129 5 -30 17 -99 26 -154 33
-191 19 -181 280 -201 110 -8 234 -19 275 -24 41 -5 143 -14 225 -19 83 -5
163 -13 178 -16 47 -12 30 -47 -30 -59 -17 -4 -60 -23 -95 -41 -34 -19 -69
-35 -77 -35 -7 0 -50 -18 -95 -39 -195 -94 -339 -158 -374 -166 -16 -3 -50
-19 -74 -34 -25 -16 -55 -32 -67 -36 -11 -3 -25 -14 -30 -23 -10 -18 9 -157
28 -205 6 -15 10 -42 10 -60 -3 -64 18 -138 44 -165 25 -24 28 -25 79 -14 29
6 85 16 123 21 39 6 131 20 205 31 74 11 191 31 260 45 69 13 184 31 255 40
72 8 168 22 215 30 426 71 385 59 383 115 -3 76 -21 188 -35 217 -13 27 -16
28 -84 26 -39 -1 -101 -9 -138 -17 -37 -9 -88 -16 -114 -16 -26 0 -68 -7 -94
-15 -48 -14 -170 -35 -244 -41 -23 -2 -53 -8 -68 -14 -14 -5 -62 -13 -106 -16
-45 -4 -83 -11 -86 -15 -3 -5 -14 -9 -25 -9 -31 0 -17 24 16 28 15 2 35 12 44
21 17 19 109 61 134 61 8 0 25 8 38 19 13 10 39 22 58 26 32 7 244 98 266 114
6 4 37 18 70 31 33 13 91 38 129 57 37 18 74 33 82 33 7 0 28 13 45 28 l32 29
-11 69 c-28 166 -34 190 -48 201 -9 6 -55 14 -102 17 -48 4 -103 11 -123 16
-20 6 -57 10 -83 10 -51 0 -338 23 -524 41 -62 6 -115 15 -118 20 -7 12 30 25
96 33 30 4 87 13 125 21 98 20 227 43 315 56 185 28 362 59 372 65 11 7 10 64
-1 116 -6 24 -15 70 -20 103 -16 92 -29 96 -171 64z"/>
<path d="M22158 10190 c-18 -11 -42 -107 -53 -212 -6 -63 -5 -67 18 -83 27
-18 141 -40 302 -60 61 -8 126 -18 145 -24 19 -5 76 -15 125 -21 50 -6 112
-15 138 -20 27 -6 66 -10 87 -10 21 0 51 -5 67 -11 15 -6 96 -20 178 -30 83
-10 164 -24 180 -30 34 -12 204 -39 245 -39 36 0 60 29 60 71 0 19 4 50 9 69
5 19 12 58 16 86 6 45 4 55 -18 79 -22 26 -30 28 -143 37 -77 6 -135 16 -166
29 -26 10 -66 19 -90 19 -24 0 -68 7 -98 15 -30 9 -118 22 -195 30 -77 8 -162
19 -190 25 -50 11 -120 21 -265 39 -41 5 -114 19 -161 30 -93 22 -164 26 -191
11z"/>
<path d="M22064 9578 c-34 -45 -101 -245 -91 -272 8 -21 118 -71 222 -101 50
-14 113 -35 140 -45 28 -10 59 -21 70 -24 60 -16 129 -46 136 -58 5 -9 -5 -43
-24 -88 -54 -124 -90 -141 -591 -280 -142 -39 -164 -53 -187 -115 -10 -27 -19
-59 -19 -70 0 -11 -7 -30 -15 -42 -9 -12 -19 -41 -24 -65 -5 -24 -12 -52 -16
-64 -10 -31 20 -57 54 -49 66 18 196 48 297 70 61 13 139 35 174 49 35 14 70
26 78 26 8 0 41 16 74 36 32 20 65 34 72 31 9 -4 15 -29 18 -79 4 -90 40 -166
114 -243 81 -85 178 -126 335 -142 99 -10 208 32 296 114 51 46 123 166 123
203 0 8 7 25 15 37 9 12 20 47 26 77 5 31 16 68 24 83 8 16 15 33 15 40 0 7
14 52 31 100 17 48 40 119 50 157 10 38 30 103 45 144 23 67 24 76 10 97 -8
12 -27 26 -43 30 -15 3 -45 15 -68 25 -22 10 -58 22 -80 26 -22 4 -56 15 -75
25 -19 11 -45 19 -58 19 -25 0 -122 31 -168 53 -43 21 -123 48 -169 56 -37 6
-108 31 -193 67 -18 8 -40 14 -50 14 -9 0 -30 7 -46 15 -16 9 -65 24 -110 36
-85 21 -223 70 -266 93 -39 22 -114 30 -126 14z m871 -613 c33 -14 67 -25 75
-25 25 0 120 -48 126 -63 10 -27 -93 -347 -132 -408 -38 -61 -67 -74 -155 -71
-48 3 -103 45 -130 102 -19 39 -20 50 -11 100 12 63 45 183 60 220 6 14 18 50
27 80 18 60 40 90 64 90 9 0 43 -12 76 -25z"/>
<path d="M7664 8642 c-23 -11 -57 -23 -75 -27 -73 -16 -186 -115 -233 -205
-52 -98 -62 -189 -40 -370 9 -74 22 -160 30 -190 16 -62 18 -166 4 -225 -20
-88 -107 -111 -174 -46 -41 39 -112 173 -119 225 -9 54 25 130 79 183 24 23
44 47 44 53 0 17 -80 179 -112 226 -16 24 -34 44 -39 44 -24 0 -92 -44 -146
-94 -164 -152 -184 -390 -53 -642 111 -213 193 -286 371 -333 68 -17 81 -18
130 -6 150 38 238 85 281 153 58 91 70 117 81 175 15 77 10 272 -8 352 -27
120 -32 187 -21 280 7 50 14 65 46 97 34 34 43 38 88 38 28 0 62 -4 76 -10 28
-10 106 -86 106 -103 0 -5 11 -24 24 -42 32 -41 43 -140 25 -220 -11 -48 -23
-68 -76 -126 -40 -44 -63 -78 -63 -93 0 -21 94 -190 128 -228 24 -28 49 -22
110 26 98 76 170 169 212 275 29 75 28 278 -3 338 -8 15 -24 57 -35 93 -11 36
-35 89 -53 118 -19 28 -47 72 -63 97 -36 58 -153 152 -220 178 -35 13 -84 21
-156 24 -89 3 -111 1 -146 -15z"/>
<path d="M21577 8108 c-22 -18 -127 -217 -127 -243 0 -25 29 -48 120 -95 36
-18 88 -45 115 -60 28 -15 61 -31 75 -35 14 -4 57 -26 95 -48 88 -51 528 -277
540 -277 2 0 33 -18 67 -40 35 -22 70 -40 80 -40 18 0 154 -69 210 -107 22
-15 44 -22 55 -19 26 8 156 242 148 266 -3 9 -31 32 -63 49 -31 17 -79 44
-107 59 -92 51 -130 70 -190 97 -33 14 -69 31 -80 37 -11 7 -56 30 -100 53
-131 68 -199 106 -215 120 -8 6 -42 23 -75 36 -33 13 -64 26 -70 30 -40 28
-438 229 -453 229 -4 0 -16 -6 -25 -12z"/>
<path d="M20918 6478 c-37 -121 -51 -169 -74 -263 -24 -98 -30 -101 -235 -104
-175 -2 -199 -7 -199 -40 0 -23 141 -154 262 -245 20 -15 38 -33 41 -40 3 -6
-4 -52 -14 -101 -11 -50 -29 -133 -40 -185 -12 -52 -23 -120 -26 -151 -4 -47
-2 -57 12 -63 23 -8 29 -4 184 142 71 67 136 122 143 122 24 0 68 -35 219
-177 79 -75 122 -92 136 -57 5 14 -9 93 -52 279 -35 152 -38 177 -24 202 7 13
75 73 150 133 75 60 139 116 143 125 8 21 -9 52 -31 59 -10 3 -94 5 -188 4
-93 0 -180 2 -192 6 -29 9 -44 61 -94 321 -6 28 -17 71 -25 98 -13 38 -20 47
-38 47 -21 0 -27 -12 -58 -112z"/>
<path d="M8892 6513 c-5 -10 -13 -38 -17 -63 -4 -25 -12 -54 -17 -64 -6 -11
-17 -42 -24 -70 -32 -123 -68 -232 -82 -248 -13 -16 -36 -18 -184 -18 -98 0
-178 -4 -189 -10 -39 -22 -23 -53 70 -134 49 -43 113 -95 142 -117 29 -22 57
-45 61 -52 12 -19 9 -68 -8 -122 -8 -27 -20 -77 -25 -110 -5 -33 -18 -104 -28
-158 -15 -85 -16 -101 -4 -113 8 -8 19 -14 24 -14 5 0 73 59 149 130 167 155
167 155 256 72 34 -31 92 -85 130 -119 38 -34 72 -64 76 -68 10 -11 45 4 52
21 6 15 -48 286 -79 397 -7 26 -11 57 -8 67 3 11 49 55 102 97 113 90 211 182
211 200 0 27 -43 33 -225 33 -180 0 -187 1 -209 23 -16 16 -25 40 -29 79 -4
30 -14 71 -22 91 -8 20 -15 49 -15 65 0 16 -9 60 -20 98 -12 38 -24 80 -28 94
-9 31 -47 39 -60 13z"/>
<path d="M15851 4988 c-42 -19 -187 -156 -225 -212 -14 -21 -26 -53 -26 -70
-1 -42 -28 -119 -67 -186 -24 -41 -34 -76 -42 -138 -6 -46 -15 -101 -21 -122
-13 -49 -6 -497 10 -595 6 -38 19 -110 30 -160 10 -49 22 -106 25 -125 7 -50
66 -169 119 -243 72 -100 121 -141 201 -167 39 -13 86 -29 105 -37 31 -12 41
-12 91 6 31 10 70 26 88 35 79 41 182 163 220 261 13 33 33 75 44 93 11 18 23
63 28 100 16 123 28 187 40 227 8 27 12 129 12 320 -1 253 -3 288 -22 359 -11
44 -21 93 -21 110 0 38 -60 212 -92 267 -117 201 -167 258 -238 277 -76 19
-218 20 -259 0z m198 -378 c60 -30 80 -61 125 -195 49 -144 51 -168 49 -435
-2 -282 -8 -350 -34 -395 -9 -16 -20 -46 -24 -65 -14 -65 -66 -159 -100 -180
-94 -58 -223 7 -260 130 -9 30 -27 84 -40 120 -30 81 -44 262 -35 470 3 87 2
156 -4 172 -8 22 -5 36 16 75 14 26 33 74 42 105 36 128 79 192 135 204 14 3
31 7 36 9 26 9 59 3 94 -15z"/>
<path d="M17995 4994 c-39 -19 -235 -224 -235 -245 0 -9 -12 -61 -26 -115 -14
-54 -30 -126 -35 -159 -6 -33 -17 -96 -25 -140 -18 -91 -46 -303 -47 -355 0
-19 5 -66 12 -105 7 -38 16 -140 21 -225 5 -85 15 -185 24 -222 27 -115 130
-314 190 -365 43 -38 100 -70 135 -78 18 -4 53 -16 78 -27 53 -23 111 -19 158
12 17 11 40 20 51 20 12 0 53 24 91 54 65 51 69 57 91 127 13 41 32 85 41 99
29 41 60 145 67 222 4 40 12 84 19 98 7 14 16 57 20 95 11 97 7 583 -4 623 -6
18 -7 40 -4 48 3 8 -1 32 -10 52 -9 20 -21 69 -28 107 -12 68 -31 118 -79 200
-13 22 -30 54 -39 70 -36 71 -104 167 -138 192 -34 26 -41 28 -167 30 -100 1
-138 -2 -161 -13z m227 -378 c30 -21 42 -42 80 -141 71 -186 68 -166 68 -481
-1 -326 2 -309 -73 -509 -39 -105 -55 -127 -115 -147 -48 -17 -51 -17 -94 2
-101 44 -140 131 -163 355 -3 33 -12 83 -20 110 -20 72 -19 167 4 355 32 265
48 350 76 386 27 35 68 68 106 84 30 12 104 5 131 -14z"/>
<path d="M16915 4991 c-32 -14 -231 -224 -237 -251 -3 -14 -13 -45 -21 -70
-30 -86 -47 -155 -52 -215 -3 -33 -10 -85 -15 -115 -6 -30 -17 -129 -26 -220
-17 -175 -11 -294 21 -455 8 -38 19 -97 25 -130 6 -33 15 -74 21 -91 5 -17 9
-38 9 -48 0 -9 9 -34 20 -56 11 -22 20 -50 20 -64 0 -27 35 -78 134 -195 74
-88 105 -108 208 -136 56 -15 77 -16 121 -7 101 20 318 178 363 262 17 32 18
67 19 428 1 267 -2 398 -9 408 -9 12 -51 15 -217 20 -270 6 -252 19 -253 -179
-1 -188 -1 -189 140 -194 54 -2 103 -8 111 -14 19 -17 15 -161 -6 -192 -24
-35 -136 -132 -174 -151 -53 -24 -125 2 -153 55 -9 17 -29 44 -44 59 -39 38
-66 147 -85 332 -3 37 -12 100 -19 140 -10 57 -10 93 -1 163 6 50 14 96 18
102 9 14 39 206 41 263 3 93 84 179 177 188 78 7 93 -1 158 -90 57 -76 60 -84
54 -124 -5 -37 -2 -44 19 -58 17 -11 35 -14 59 -10 55 10 176 71 181 91 6 23
-17 179 -32 218 -6 16 -17 37 -25 45 -7 8 -38 62 -68 120 -56 108 -67 119
-164 165 -36 17 -281 21 -318 6z"/>
<path d="M11677 4965 c-38 -19 -205 -192 -226 -233 -10 -20 -22 -60 -26 -87
-4 -28 -25 -85 -47 -128 l-39 -79 4 -116 c2 -64 0 -130 -4 -146 -18 -64 -39
-313 -34 -396 7 -91 40 -306 55 -361 6 -19 10 -45 10 -58 0 -13 26 -76 57
-140 47 -95 70 -129 128 -187 64 -65 77 -73 155 -99 101 -34 161 -35 215 -6
22 11 47 21 56 21 33 0 166 158 211 250 39 82 68 161 68 188 0 16 8 62 19 103
29 116 33 159 37 404 4 229 -8 420 -29 460 -6 11 -14 43 -18 70 -20 136 -21
141 -100 275 -4 8 -23 40 -40 70 -72 125 -92 151 -137 177 -42 25 -55 27 -169
29 -78 1 -131 -3 -146 -11z m206 -379 c39 -16 97 -79 97 -106 0 -11 9 -37 20
-57 11 -21 20 -48 20 -61 0 -13 7 -37 16 -53 13 -25 16 -84 21 -326 5 -317 8
-283 -45 -463 -43 -141 -73 -188 -143 -221 -48 -22 -50 -22 -85 -6 -89 43
-154 127 -154 201 0 19 -5 47 -11 63 -6 15 -17 78 -24 138 -8 61 -19 139 -25
174 -7 41 -8 74 -1 95 10 32 19 117 26 247 3 42 12 92 20 112 8 21 18 65 21
100 5 47 13 68 32 90 14 15 29 27 34 27 4 0 27 14 50 30 45 33 81 37 131 16z"/>
<path d="M18764 4967 c-19 -11 -47 -74 -39 -87 3 -6 6 -420 6 -921 0 -584 4
-920 10 -937 6 -15 16 -30 22 -34 17 -11 199 -10 217 2 12 7 14 69 15 399 0
292 3 393 12 402 20 20 67 14 102 -12 33 -24 121 -186 121 -223 0 -9 9 -34 20
-56 11 -22 20 -46 20 -54 0 -8 14 -50 32 -93 17 -43 35 -98 39 -123 13 -74 59
-193 87 -222 24 -26 31 -28 115 -28 95 0 127 10 127 39 0 10 -13 63 -29 117
-16 54 -38 131 -49 169 -11 39 -43 135 -71 215 -28 80 -51 152 -51 160 0 8
-25 48 -55 89 -61 82 -61 89 0 135 20 15 47 44 60 64 14 20 39 55 55 76 17 21
30 48 30 58 0 11 11 43 24 71 24 50 25 59 21 227 -3 172 -18 292 -49 394 -19
63 -83 130 -156 162 -55 25 -56 25 -337 23 -155 -2 -290 -7 -299 -12z m492
-342 c23 -9 51 -30 64 -47 21 -28 22 -41 23 -167 1 -126 -1 -140 -22 -174 -27
-44 -48 -57 -94 -57 -19 0 -48 -7 -63 -15 -32 -16 -131 -20 -153 -6 -12 8 -15
48 -14 231 1 272 -5 258 126 254 56 -1 108 -8 133 -19z"/>
<path d="M14986 4963 c-4 -4 -106 -8 -225 -8 -189 -1 -222 -3 -245 -18 l-26
-17 4 -963 5 -962 23 -20 c23 -20 37 -20 325 -20 l301 1 35 24 c20 14 45 40
56 60 11 19 38 55 60 79 44 48 87 156 76 191 -4 11 1 69 11 128 14 90 15 119
5 177 -6 39 -15 90 -19 115 -5 25 -15 56 -24 70 -9 14 -20 48 -23 75 -10 66
-32 103 -77 126 -46 23 -47 39 -8 81 17 17 33 43 36 57 3 14 15 51 26 80 18
46 22 81 25 208 3 160 0 182 -40 298 -61 173 -98 216 -199 229 -29 4 -62 9
-73 12 -11 3 -24 1 -29 -3z m38 -364 c50 -39 73 -89 81 -171 6 -65 4 -82 -14
-124 -12 -27 -36 -64 -53 -81 -32 -33 -32 -33 -133 -33 -145 0 -140 -7 -141
182 -1 84 -5 169 -9 189 -10 51 7 58 136 59 94 0 110 -3 133 -21z m6 -796 c91
-63 126 -138 117 -251 -8 -106 -23 -151 -66 -193 l-36 -36 -134 2 c-99 2 -136
6 -142 16 -5 8 -8 112 -7 233 1 171 5 221 16 232 21 22 220 19 252 -3z"/>
<path d="M12379 4938 c-30 -12 -37 -45 -36 -176 1 -102 4 -125 18 -138 14 -12
47 -16 158 -18 78 -1 143 -5 146 -8 3 -3 7 -370 8 -816 2 -651 5 -814 15 -824
20 -20 190 -18 202 2 6 9 10 328 10 812 l0 798 26 16 c17 12 57 19 123 23 57
4 104 11 114 19 11 9 17 41 22 116 8 119 1 181 -23 192 -22 10 -757 11 -783 2z"/>
<path d="M13475 4925 c-14 -13 -25 -34 -25 -46 0 -12 -7 -42 -15 -68 -19 -62
-45 -199 -45 -239 0 -18 -7 -49 -15 -69 -8 -19 -15 -51 -15 -70 0 -19 -5 -43
-11 -54 -5 -11 -13 -52 -15 -92 -3 -40 -12 -92 -19 -117 -27 -89 -45 -167 -45
-198 0 -17 -5 -43 -11 -59 -12 -32 -47 -209 -59 -298 -5 -33 -17 -96 -28 -140
-11 -44 -25 -111 -32 -150 -12 -70 -42 -207 -61 -277 -11 -43 -2 -68 33 -92
28 -20 176 -22 200 -3 18 13 54 139 92 316 14 62 28 116 31 120 4 3 74 7 156
9 171 4 191 -2 209 -65 6 -21 18 -101 26 -178 17 -147 29 -180 70 -195 32 -12
174 -13 193 -1 16 11 11 103 -13 210 -8 36 -20 100 -27 141 -6 41 -17 93 -24
115 -7 22 -16 69 -19 105 -4 35 -14 80 -22 99 -8 19 -17 62 -20 96 -3 33 -11
83 -19 110 -19 69 -37 145 -41 175 -2 14 -8 50 -14 80 -6 30 -15 88 -20 128
-6 39 -19 100 -30 135 -11 34 -20 78 -20 98 0 20 -7 56 -15 79 -8 23 -15 56
-15 72 0 15 -9 54 -20 85 -11 32 -20 76 -20 99 0 65 -29 144 -57 155 -14 5
-62 9 -109 9 -77 0 -87 -2 -109 -25z m151 -741 c7 -43 17 -99 22 -124 6 -25
16 -72 22 -105 7 -33 16 -76 22 -96 20 -70 15 -74 -95 -77 -84 -2 -98 0 -104
14 -7 19 8 127 31 219 8 33 21 97 30 143 25 138 54 149 72 26z"/>
<path d="M11086 4930 l-118 -5 -27 -32 c-29 -35 -57 -89 -91 -173 -12 -30 -30
-73 -40 -95 -11 -22 -52 -116 -93 -208 -74 -170 -102 -216 -117 -201 -9 9 -11
113 -9 487 1 114 -2 211 -5 215 -4 3 -45 7 -91 8 -68 2 -89 -1 -107 -16 l-23
-18 2 -488 c1 -269 2 -704 2 -967 l1 -477 33 -20 c23 -14 50 -20 94 -20 99 0
94 -24 94 433 0 193 5 214 68 310 15 23 34 60 42 82 12 31 20 40 39 40 21 0
25 -7 37 -65 8 -36 19 -78 25 -95 5 -16 14 -53 19 -82 5 -29 14 -65 21 -80 6
-15 17 -50 24 -78 22 -93 63 -235 70 -246 3 -6 13 -43 21 -82 8 -39 21 -83 29
-98 l13 -27 121 1 c140 0 162 8 141 53 -7 15 -16 46 -21 68 -4 23 -19 73 -33
111 -13 39 -37 111 -52 160 -15 50 -40 126 -56 170 -36 106 -87 259 -105 315
-19 64 -53 162 -64 185 -5 11 -11 34 -13 50 -2 17 -11 46 -20 65 -15 35 -15
37 19 90 19 30 34 61 34 70 0 9 10 34 21 55 12 22 59 112 104 200 108 210 152
292 183 337 19 30 22 41 13 52 -16 19 -47 22 -185 16z"/>
</g>
</svg>
